<svg width="220" height="56" viewBox="0 0 220 56" fill="none" xmlns="http://www.w3.org/2000/svg">
<path d="M7.5 34.5703C6.97917 36.0026 6.86198 37.0573 7.14844 37.7344C7.4349 38.3854 8.45052 38.7109 10.1953 38.7109V39.6875C8.89323 39.6615 7.46094 39.6484 5.89844 39.6484C4.33594 39.6484 2.92969 39.6615 1.67969 39.6875V38.6328C2.38281 38.6328 2.95573 38.5677 3.39844 38.4375C3.84115 38.3073 4.21875 38.0729 4.53125 37.7344C4.84375 37.4219 5.11719 37.0052 5.35156 36.4844C5.58594 35.9375 5.84635 35.2604 6.13281 34.4531L14.9609 9.33594H15.7422L24.2969 34.5312C24.5573 35.3385 24.8307 36.0026 25.1172 36.5234C25.4036 37.0443 25.7161 37.4479 26.0547 37.7344C26.4193 38.0469 26.8229 38.2812 27.2656 38.4375C27.7344 38.5677 28.2812 38.6589 28.9062 38.7109V39.6875C28.2552 39.6875 27.513 39.6875 26.6797 39.6875C25.8724 39.6615 25.0391 39.6484 24.1797 39.6484C23.2943 39.6484 22.4349 39.6615 21.6016 39.6875C20.7943 39.6875 20.0781 39.6875 19.4531 39.6875V38.7109C20.2865 38.7109 20.9375 38.6589 21.4062 38.5547C21.875 38.4505 22.1875 38.2422 22.3438 37.9297C22.5 37.6172 22.513 37.1875 22.3828 36.6406C22.2786 36.0938 22.0964 35.3776 21.8359 34.4922L19.8438 28.7109H9.53125L7.5 34.5703ZM19.4141 27.3828L14.8047 13.5938L10.0391 27.3828H19.4141ZM48.8281 23.5547L44.7266 23.3984C44.987 23.7109 45.2214 24.2188 45.4297 24.9219C45.6641 25.625 45.7812 26.224 45.7812 26.7188C45.7812 28.776 45.1042 30.3646 43.75 31.4844C42.4219 32.5781 40.6641 33.125 38.4766 33.125C38.1641 33.125 37.8125 33.125 37.4219 33.125C37.0573 33.099 36.6797 33.0339 36.2891 32.9297C35.9766 33.1641 35.7031 33.3724 35.4688 33.5547C35.2604 33.7109 35.0911 33.8672 34.9609 34.0234C34.8047 34.1797 34.7005 34.349 34.6484 34.5312C34.5964 34.7135 34.5703 34.9219 34.5703 35.1562C34.5703 35.3125 34.5833 35.5208 34.6094 35.7812C34.6354 36.0156 34.7526 36.25 34.9609 36.4844C35.1693 36.7188 35.4948 36.9271 35.9375 37.1094C36.3802 37.2656 37.0182 37.3438 37.8516 37.3438C38.3464 37.3438 38.8281 37.3568 39.2969 37.3828C39.7917 37.3828 40.2604 37.3828 40.7031 37.3828C41.1719 37.3828 41.6146 37.3828 42.0312 37.3828C42.4479 37.3828 42.8776 37.3828 43.3203 37.3828C44.9609 37.3828 46.3021 37.7474 47.3438 38.4766C48.3854 39.2057 48.9062 40.3646 48.9062 41.9531C48.9062 42.9167 48.6328 43.8281 48.0859 44.6875C47.5391 45.5729 46.7839 46.3542 45.8203 47.0312C44.8828 47.7083 43.763 48.2422 42.4609 48.6328C41.1589 49.0495 39.7656 49.2578 38.2812 49.2578C37.0312 49.2578 35.9375 49.1016 35 48.7891C34.0625 48.4766 33.2812 48.0859 32.6562 47.6172C32.0312 47.1484 31.5625 46.6276 31.25 46.0547C30.9635 45.4818 30.8203 44.8958 30.8203 44.2969C30.8203 42.9427 31.2891 41.849 32.2266 41.0156C33.1901 40.1823 34.2448 39.5964 35.3906 39.2578C33.9844 38.9453 33.0469 38.3333 32.5781 37.4219C32.1354 36.5104 32.0573 35.5599 32.3438 34.5703C32.8906 34.2578 33.4505 33.9062 34.0234 33.5156C34.5964 33.099 35 32.7734 35.2344 32.5391C34.2708 32.0443 33.4375 31.3672 32.7344 30.5078C32.0573 29.6224 31.7188 28.4635 31.7188 27.0312C31.7188 25.2083 32.3438 23.6849 33.5938 22.4609C34.8698 21.237 36.7188 20.625 39.1406 20.625C39.6875 20.625 40.2865 20.6901 40.9375 20.8203C41.5885 20.9245 42.1745 21.0417 42.6953 21.1719C43.2422 21.3802 43.8411 21.5625 44.4922 21.7188C45.1432 21.849 45.9375 21.9141 46.875 21.9141C47.0573 21.9141 47.2135 21.9271 47.3438 21.9531C47.474 21.9531 47.6042 21.9401 47.7344 21.9141C47.8646 21.9141 48.0078 21.9141 48.1641 21.9141C48.3203 21.888 48.5417 21.849 48.8281 21.7969V23.5547ZM32.9297 43.7109C32.9297 45.1172 33.5286 46.1719 34.7266 46.875C35.9245 47.6042 37.3177 47.9688 38.9062 47.9688C39.974 47.9688 40.9766 47.8516 41.9141 47.6172C42.8776 47.3828 43.724 47.0573 44.4531 46.6406C45.1562 46.224 45.7161 45.7292 46.1328 45.1562C46.5495 44.5833 46.7578 43.9323 46.7578 43.2031C46.7578 42.5521 46.5755 41.9922 46.2109 41.5234C45.8724 41.0807 45.4167 40.7292 44.8438 40.4688C44.2448 40.1823 43.5547 39.987 42.7734 39.8828C42.0182 39.7526 41.2109 39.6875 40.3516 39.6875C37.9297 39.6875 36.0807 40.0521 34.8047 40.7812C33.5547 41.5365 32.9297 42.513 32.9297 43.7109ZM34.4141 26.6016C34.4141 28.0859 34.7786 29.375 35.5078 30.4688C36.237 31.5625 37.3307 32.1094 38.7891 32.1094C40.4557 32.1094 41.6276 31.6146 42.3047 30.625C43.0078 29.6354 43.3594 28.4766 43.3594 27.1484C43.3594 26.5234 43.2682 25.8854 43.0859 25.2344C42.9036 24.5573 42.6302 23.9583 42.2656 23.4375C41.901 22.9167 41.4193 22.487 40.8203 22.1484C40.2214 21.8099 39.5052 21.6406 38.6719 21.6406C37.9167 21.6406 37.2656 21.7969 36.7188 22.1094C36.1719 22.4219 35.7292 22.8125 35.3906 23.2812C35.0521 23.776 34.8047 24.3229 34.6484 24.9219C34.4922 25.4948 34.4141 26.0547 34.4141 26.6016ZM53.9062 28.125C53.8281 28.5156 53.7891 28.9323 53.7891 29.375C53.7891 29.8177 53.8151 30.3906 53.8672 31.0938C53.9974 33.0729 54.6094 34.7396 55.7031 36.0938C56.7969 37.4219 58.2943 38.0859 60.1953 38.0859C61.4974 38.0859 62.6172 37.8385 63.5547 37.3438C64.5182 36.8229 65.3125 36.1849 65.9375 35.4297L66.4844 35.7812C65.7552 37.0833 64.7656 38.1771 63.5156 39.0625C62.2917 39.9219 60.9115 40.3516 59.375 40.3516C58.2552 40.3516 57.2135 40.1172 56.25 39.6484C55.3125 39.1797 54.4922 38.5286 53.7891 37.6953C53.0859 36.862 52.526 35.8854 52.1094 34.7656C51.7188 33.6458 51.5234 32.4219 51.5234 31.0938C51.5234 29.4531 51.7318 27.9818 52.1484 26.6797C52.5651 25.3776 53.125 24.2839 53.8281 23.3984C54.5573 22.487 55.4036 21.7969 56.3672 21.3281C57.3568 20.8594 58.4115 20.625 59.5312 20.625C60.3125 20.625 61.0938 20.7552 61.875 21.0156C62.6562 21.276 63.3594 21.6667 63.9844 22.1875C64.6094 22.7344 65.1172 23.4245 65.5078 24.2578C65.8984 25.0651 66.1068 26.0286 66.1328 27.1484C66.1328 27.4609 66.0938 27.6953 66.0156 27.8516C65.9375 27.9818 65.7422 28.0729 65.4297 28.125H53.9062ZM62.2656 26.875C62.7344 26.875 63.0729 26.8099 63.2812 26.6797C63.4896 26.5234 63.5938 26.25 63.5938 25.8594C63.5938 25.4427 63.4896 25 63.2812 24.5312C63.099 24.0625 62.8385 23.6328 62.5 23.2422C62.1354 22.8516 61.6927 22.526 61.1719 22.2656C60.651 22.0052 60.0521 21.875 59.375 21.875C57.8906 21.875 56.6927 22.3438 55.7812 23.2812C54.8958 24.1927 54.3099 25.3906 54.0234 26.875H62.2656ZM74.2188 20.6641C74.1406 21.3672 74.0885 22.0573 74.0625 22.7344C74.0625 23.4115 74.0625 23.9193 74.0625 24.2578C75.2344 23.3984 76.4974 22.5781 77.8516 21.7969C79.2057 21.0156 80.5078 20.625 81.7578 20.625C83.3203 20.625 84.4401 21.1979 85.1172 22.3438C85.7943 23.4635 86.1328 24.8307 86.1328 26.4453V35.7031C86.1328 36.7969 86.3151 37.5781 86.6797 38.0469C87.0443 38.4896 87.8125 38.7109 88.9844 38.7109V39.6875C88.6198 39.6875 88.2682 39.6875 87.9297 39.6875C87.6172 39.6875 87.3047 39.6745 86.9922 39.6484C86.6797 39.6484 86.3542 39.6484 86.0156 39.6484C85.7031 39.6224 85.3646 39.6094 85 39.6094C84.6094 39.6094 84.2448 39.6224 83.9062 39.6484C83.5938 39.6484 83.2812 39.6484 82.9688 39.6484C82.6562 39.6484 82.3307 39.6615 81.9922 39.6875C81.6797 39.6875 81.3411 39.6875 80.9766 39.6875V38.7109C82.0964 38.7109 82.8385 38.4896 83.2031 38.0469C83.5677 37.5781 83.75 36.7969 83.75 35.7031V26.4062C83.75 25.1042 83.4505 24.1667 82.8516 23.5938C82.2526 23.0208 81.263 22.7344 79.8828 22.7344C79.4922 22.7604 79.0365 22.8646 78.5156 23.0469C77.9948 23.2031 77.474 23.3984 76.9531 23.6328C76.4062 23.8932 75.8724 24.1797 75.3516 24.4922C74.8568 24.8047 74.4271 25.1172 74.0625 25.4297V35.7031C74.0625 36.7969 74.2448 37.5781 74.6094 38.0469C74.974 38.4896 75.7422 38.7109 76.9141 38.7109V39.6875C76.5234 39.6875 76.1719 39.6875 75.8594 39.6875C75.5469 39.6875 75.2344 39.6745 74.9219 39.6484C74.6094 39.6484 74.2839 39.6484 73.9453 39.6484C73.6328 39.6224 73.2943 39.6094 72.9297 39.6094C72.5391 39.6094 72.1745 39.6224 71.8359 39.6484C71.5234 39.6484 71.2109 39.6484 70.8984 39.6484C70.5599 39.6484 70.2214 39.6615 69.8828 39.6875C69.5703 39.6875 69.2318 39.6875 68.8672 39.6875V38.7109C70.013 38.7109 70.7552 38.4896 71.0938 38.0469C71.4583 37.5781 71.6406 36.7969 71.6406 35.7031V26.5234C71.6406 25.8203 71.6146 25.2604 71.5625 24.8438C71.5365 24.4271 71.4453 24.1016 71.2891 23.8672C71.1328 23.6328 70.8984 23.4766 70.5859 23.3984C70.2734 23.3203 69.8438 23.2812 69.2969 23.2812V22.4609C70.1302 22.3307 70.8854 22.1354 71.5625 21.875C72.2656 21.6146 72.9036 21.2109 73.4766 20.6641H74.2188ZM106.289 25.7812C106.289 25.026 106.12 24.401 105.781 23.9062C105.443 23.3854 105.039 22.9818 104.57 22.6953C104.076 22.4089 103.542 22.2005 102.969 22.0703C102.396 21.9401 101.862 21.875 101.367 21.875C100.534 21.875 99.7005 22.0573 98.8672 22.4219C98.0599 22.7604 97.3438 23.2812 96.7188 23.9844C96.0677 24.6875 95.5469 25.5729 95.1562 26.6406C94.7656 27.6823 94.5703 28.9062 94.5703 30.3125C94.5703 32.6042 95.1562 34.4922 96.3281 35.9766C97.526 37.4609 99.1927 38.2031 101.328 38.2031C101.667 38.2031 102.122 38.138 102.695 38.0078C103.268 37.8516 103.815 37.6432 104.336 37.3828C104.857 37.1224 105.312 36.8229 105.703 36.4844C106.094 36.1458 106.289 35.7812 106.289 35.3906V25.7812ZM106.289 13.9062C106.289 13.2292 106.25 12.6953 106.172 12.3047C106.12 11.888 105.99 11.5625 105.781 11.3281C105.599 11.1198 105.326 10.9896 104.961 10.9375C104.622 10.8854 104.18 10.8594 103.633 10.8594V10.0781C104.466 9.92188 105.273 9.6875 106.055 9.375C106.862 9.03646 107.565 8.59375 108.164 8.04688H108.867C108.789 8.75 108.737 9.50521 108.711 10.3125C108.685 11.0938 108.672 11.7969 108.672 12.4219V36.1328C108.672 37.0182 108.893 37.5521 109.336 37.7344C109.805 37.8906 110.508 37.9427 111.445 37.8906V38.6719C110.951 38.8281 110.234 39.0885 109.297 39.4531C108.385 39.8177 107.539 40.1693 106.758 40.5078C106.602 40.5859 106.484 40.5859 106.406 40.5078C106.328 40.4557 106.289 40.3516 106.289 40.1953V37.2656C105.221 38.2812 104.115 39.0495 102.969 39.5703C101.849 40.0651 100.742 40.3125 99.6484 40.3125C98.5026 40.3125 97.4479 40.0651 96.4844 39.5703C95.5469 39.0495 94.7396 38.3594 94.0625 37.5C93.3854 36.6667 92.8646 35.7031 92.5 34.6094C92.1354 33.4896 91.9531 32.3438 91.9531 31.1719C91.9531 29.7656 92.2135 28.4245 92.7344 27.1484C93.2552 25.8724 93.9714 24.7526 94.8828 23.7891C95.7682 22.8255 96.8099 22.0573 98.0078 21.4844C99.2057 20.9115 100.482 20.625 101.836 20.625C102.461 20.625 103.112 20.7031 103.789 20.8594C104.492 20.9896 105.326 21.276 106.289 21.7188V13.9062ZM125.391 30.1562C122.526 31.0156 120.378 31.8229 118.945 32.5781C117.539 33.3073 116.836 34.2448 116.836 35.3906C116.836 36.5885 117.135 37.4089 117.734 37.8516C118.359 38.2682 119.219 38.4766 120.312 38.4766C121.276 38.4766 122.201 38.2161 123.086 37.6953C123.971 37.1745 124.74 36.5625 125.391 35.8594V30.1562ZM131.289 38.2031C130.716 38.75 130.104 39.2448 129.453 39.6875C128.828 40.1302 128.19 40.3516 127.539 40.3516C126.914 40.3516 126.406 40.0651 126.016 39.4922C125.651 38.9193 125.443 38.0859 125.391 36.9922C124.427 38.0078 123.359 38.8281 122.188 39.4531C121.016 40.0521 119.792 40.3516 118.516 40.3516C117.344 40.3516 116.354 39.974 115.547 39.2188C114.74 38.4375 114.362 37.4609 114.414 36.2891C114.44 35.3255 114.727 34.5052 115.273 33.8281C115.846 33.125 116.628 32.513 117.617 31.9922C118.581 31.4714 119.727 30.9896 121.055 30.5469C122.383 30.1042 123.828 29.6354 125.391 29.1406V26.4453C125.391 25.2995 125.117 24.362 124.57 23.6328C124.049 22.8776 123.021 22.5 121.484 22.5C120.391 22.5 119.414 22.8255 118.555 23.4766C117.721 24.1016 117.292 24.8698 117.266 25.7812C117.266 26.4062 117.135 26.862 116.875 27.1484C116.641 27.4349 116.341 27.5781 115.977 27.5781C115.664 27.5781 115.417 27.4479 115.234 27.1875C115.078 26.9271 115 26.5885 115 26.1719C115 25.4688 115.326 24.7917 115.977 24.1406C116.654 23.4896 117.734 22.7734 119.219 21.9922C120.078 21.5234 120.781 21.1849 121.328 20.9766C121.901 20.7682 122.5 20.6641 123.125 20.6641C124.375 20.6641 125.456 21.0417 126.367 21.7969C127.305 22.5521 127.773 23.6458 127.773 25.0781V35.7422C127.773 37.2005 128.086 38.0339 128.711 38.2422C129.362 38.4505 130.182 38.2161 131.172 37.5391L131.289 38.2031ZM160.781 15.9375C160.781 16.6406 160.651 17.3307 160.391 18.0078C160.13 18.6849 159.779 19.3359 159.336 19.9609C158.893 20.5859 158.372 21.1719 157.773 21.7188C157.201 22.2656 156.576 22.7604 155.898 23.2031C156.758 23.3594 157.565 23.6458 158.32 24.0625C159.076 24.4792 159.74 25.013 160.312 25.6641C160.885 26.3151 161.341 27.0573 161.68 27.8906C162.018 28.724 162.188 29.6354 162.188 30.625C162.188 32.0312 161.979 33.2682 161.562 34.3359C161.146 35.3776 160.56 36.276 159.805 37.0312C159.076 37.7865 158.19 38.4245 157.148 38.9453C156.133 39.4401 155 39.8177 153.75 40.0781C152.812 40.2865 151.888 40.3646 150.977 40.3125C150.065 40.2604 149.245 40.1302 148.516 39.9219C147.812 39.6875 147.24 39.401 146.797 39.0625C146.354 38.6979 146.133 38.3203 146.133 37.9297C146.133 37.5651 146.25 37.2396 146.484 36.9531C146.745 36.6667 147.096 36.5234 147.539 36.5234C148.06 36.5234 148.555 36.6276 149.023 36.8359C149.518 37.0443 150 37.3047 150.469 37.6172C151.12 38.0599 151.667 38.3464 152.109 38.4766C152.578 38.5807 153.073 38.6198 153.594 38.5938C154.323 38.5677 155.052 38.3984 155.781 38.0859C156.51 37.7474 157.161 37.3047 157.734 36.7578C158.307 36.1849 158.776 35.5208 159.141 34.7656C159.505 33.9844 159.701 33.125 159.727 32.1875C159.779 29.4792 159.049 27.526 157.539 26.3281C156.029 25.1302 153.737 24.7005 150.664 25.0391L150.703 23.9453C151.797 23.7109 152.786 23.3464 153.672 22.8516C154.583 22.3568 155.352 21.7839 155.977 21.1328C156.628 20.4557 157.135 19.7266 157.5 18.9453C157.865 18.138 158.047 17.3177 158.047 16.4844C158.047 15 157.643 13.8542 156.836 13.0469C156.029 12.2396 154.922 11.8359 153.516 11.8359C152.76 11.8359 152.057 11.9792 151.406 12.2656C150.755 12.526 150.169 12.8776 149.648 13.3203C149.128 13.763 148.672 14.2839 148.281 14.8828C147.917 15.4557 147.617 16.0677 147.383 16.7188L146.211 16.6797C146.445 15.7161 146.81 14.8307 147.305 14.0234C147.799 13.1901 148.398 12.474 149.102 11.875C149.805 11.276 150.599 10.8073 151.484 10.4688C152.37 10.1302 153.333 9.96094 154.375 9.96094C155.234 9.96094 156.042 10.1042 156.797 10.3906C157.578 10.6771 158.255 11.0807 158.828 11.6016C159.427 12.1224 159.896 12.7604 160.234 13.5156C160.599 14.2448 160.781 15.0521 160.781 15.9375ZM188.164 37.2266C188.451 37.6172 188.802 37.9167 189.219 38.125C189.635 38.3333 190.052 38.4766 190.469 38.5547C190.911 38.6589 191.315 38.7109 191.68 38.7109C192.07 38.7109 192.383 38.7109 192.617 38.7109V39.6484C192.253 39.6484 191.81 39.6484 191.289 39.6484C190.768 39.6224 190.234 39.6094 189.688 39.6094C189.141 39.6094 188.607 39.6224 188.086 39.6484C187.565 39.6484 187.135 39.6484 186.797 39.6484L175.586 24.1016L172.305 27.2656V34.5312C172.305 36.3021 172.539 37.4479 173.008 37.9688C173.503 38.4635 174.401 38.7109 175.703 38.7109V39.6875C175.182 39.6875 174.479 39.6875 173.594 39.6875C172.708 39.6615 171.784 39.6484 170.82 39.6484C169.831 39.6484 168.88 39.6484 167.969 39.6484C167.083 39.6484 166.38 39.6615 165.859 39.6875V38.7109C166.615 38.7109 167.24 38.6589 167.734 38.5547C168.229 38.4505 168.62 38.2422 168.906 37.9297C169.193 37.6432 169.388 37.2266 169.492 36.6797C169.622 36.1328 169.688 35.4167 169.688 34.5312V15.3906C169.688 14.5573 169.622 13.8932 169.492 13.3984C169.388 12.9036 169.193 12.513 168.906 12.2266C168.62 11.9661 168.229 11.7969 167.734 11.7188C167.24 11.6146 166.615 11.5495 165.859 11.5234V10.5078C166.354 10.5339 167.044 10.5599 167.93 10.5859C168.841 10.5859 169.779 10.5859 170.742 10.5859C171.706 10.5859 172.617 10.5859 173.477 10.5859C174.362 10.5599 175.039 10.5339 175.508 10.5078V11.5234C174.883 11.5495 174.362 11.6146 173.945 11.7188C173.529 11.7969 173.203 11.9661 172.969 12.2266C172.708 12.513 172.526 12.9036 172.422 13.3984C172.344 13.8932 172.305 14.5573 172.305 15.3906V25.8203L183.594 14.8828C183.698 14.7786 183.854 14.6224 184.062 14.4141C184.271 14.2057 184.466 13.9844 184.648 13.75C184.857 13.5417 185.026 13.3203 185.156 13.0859C185.312 12.8516 185.391 12.6562 185.391 12.5C185.391 12.0833 185.156 11.8229 184.688 11.7188C184.219 11.5885 183.672 11.5234 183.047 11.5234V10.5078C183.516 10.5339 184.102 10.5599 184.805 10.5859C185.534 10.612 186.289 10.625 187.07 10.625C187.826 10.625 188.555 10.625 189.258 10.625C189.961 10.625 190.534 10.599 190.977 10.5469V11.5234C190.508 11.5234 190.052 11.5885 189.609 11.7188C189.193 11.8229 188.724 12.0443 188.203 12.3828C187.682 12.6953 187.07 13.151 186.367 13.75C185.69 14.3229 184.883 15.0651 183.945 15.9766L177.188 22.5391L188.164 37.2266ZM207.617 25.7422V34.5703H205.352V25.7422H196.836V23.9062H205.352V15.4297H207.617V23.9062H216.172V25.7422H207.617Z" fill="url(#paint0_linear_7_607)"/>
<g style="mix-blend-mode:plus-lighter" opacity="0.25">
<g style="mix-blend-mode:plus-lighter" filter="url(#filter0_f_7_607)">
<path d="M171.5 7L172.078 23.2107L176.496 10.9152L173.013 24.8491L179.584 21.1652L173.37 27.5L179.584 33.8348L173.013 30.1509L176.496 44.0848L172.078 31.7893L171.5 48L170.922 31.7893L166.504 44.0848L169.987 30.1509L163.416 33.8348L169.63 27.5L163.416 21.1652L169.987 24.8491L166.504 10.9152L170.922 23.2107L171.5 7Z" fill="#EFDC7B"/>
</g>
<g style="mix-blend-mode:plus-lighter" filter="url(#filter1_f_7_607)">
<path d="M161.5 20L161.806 28.3031L164.145 22.0053L162.301 29.1422L165.78 27.2553L162.49 30.5L165.78 33.7447L162.301 31.8578L164.145 38.9947L161.806 32.6969L161.5 41L161.194 32.6969L158.855 38.9947L160.699 31.8578L157.22 33.7447L160.51 30.5L157.22 27.2553L160.699 29.1422L158.855 22.0053L161.194 28.3031L161.5 20Z" fill="#EFDC7B"/>
</g>
<g style="mix-blend-mode:plus-lighter" filter="url(#filter2_f_7_607)">
<path d="M206.5 15L206.806 23.3031L209.145 17.0053L207.301 24.1422L210.78 22.2553L207.49 25.5L210.78 28.7447L207.301 26.8578L209.145 33.9947L206.806 27.6969L206.5 36L206.194 27.6969L203.855 33.9947L205.699 26.8578L202.22 28.7447L205.51 25.5L202.22 22.2553L205.699 24.1422L203.855 17.0053L206.194 23.3031L206.5 15Z" fill="#EFDC7B"/>
</g>
<g style="mix-blend-mode:plus-lighter" filter="url(#filter3_f_7_607)">
<path d="M127.5 17L127.874 27.6754L130.733 19.5783L128.479 28.7543L132.731 26.3283L128.71 30.5L132.731 34.6717L128.479 32.2457L130.733 41.4217L127.874 33.3246L127.5 44L127.126 33.3246L124.267 41.4217L126.521 32.2457L122.269 34.6717L126.29 30.5L122.269 26.3283L126.521 28.7543L124.267 19.5783L127.126 27.6754L127.5 17Z" fill="#EFDC7B"/>
</g>
<g style="mix-blend-mode:plus-lighter" filter="url(#filter4_f_7_607)">
<path d="M107.5 16L107.874 26.6754L110.733 18.5783L108.479 27.7543L112.731 25.3283L108.71 29.5L112.731 33.6717L108.479 31.2457L110.733 40.4217L107.874 32.3246L107.5 43L107.126 32.3246L104.267 40.4217L106.521 31.2457L102.269 33.6717L106.29 29.5L102.269 25.3283L106.521 27.7543L104.267 18.5783L107.126 26.6754L107.5 16Z" fill="#EFDC7B"/>
</g>
<g style="mix-blend-mode:plus-lighter" filter="url(#filter5_f_7_607)">
<path d="M73.5 16L73.8739 26.6754L76.7328 18.5783L74.4789 27.7543L78.7308 25.3283L74.71 29.5L78.7308 33.6717L74.4789 31.2457L76.7328 40.4217L73.8739 32.3246L73.5 43L73.1261 32.3246L70.2672 40.4217L72.5211 31.2457L68.2692 33.6717L72.29 29.5L68.2692 25.3283L72.5211 27.7543L70.2672 18.5783L73.1261 26.6754L73.5 16Z" fill="#EFDC7B"/>
</g>
<g style="mix-blend-mode:plus-lighter" filter="url(#filter6_f_7_607)">
<path d="M53.5 17L53.8739 27.6754L56.7328 19.5783L54.4789 28.7543L58.7308 26.3283L54.71 30.5L58.7308 34.6717L54.4789 32.2457L56.7328 41.4217L53.8739 33.3246L53.5 44L53.1261 33.3246L50.2672 41.4217L52.5211 32.2457L48.2692 34.6717L52.29 30.5L48.2692 26.3283L52.5211 28.7543L50.2672 19.5783L53.1261 27.6754L53.5 17Z" fill="#EFDC7B"/>
</g>
<g style="mix-blend-mode:plus-lighter" filter="url(#filter7_f_7_607)">
<path d="M14.9498 14.7817L11.8454 25.0025L17.1731 18.2681L12.0682 26.2192L16.8767 25.3014L11.7214 27.9457L14.174 33.195L10.9372 29.5224L10.0971 38.9338L10.0153 30.3472L6.20344 40.3258L9.30785 30.1049L3.98014 36.8393L9.08498 28.8882L4.27647 29.806L9.43185 27.1618L6.97923 21.9125L10.216 25.585L11.0561 16.1737L11.1379 24.7603L14.9498 14.7817Z" fill="#EFDC7B"/>
</g>
<g style="mix-blend-mode:plus-lighter" filter="url(#filter8_f_7_607)">
<path d="M34.4997 15.0606L34.9912 25.7312L37.7607 17.6031L35.6081 26.8034L39.833 24.3306L35.8584 28.5464L39.925 32.6736L35.6466 30.2946L38.0015 39.4452L35.0535 31.3801L34.7973 42.0589L34.3057 31.3884L31.5363 39.5165L33.6889 30.3162L29.464 32.7889L33.4386 28.5731L29.372 24.446L33.6504 26.8249L31.2955 17.6743L34.2435 25.7394L34.4997 15.0606Z" fill="#EFDC7B"/>
</g>
</g>
<defs>
<filter id="filter0_f_7_607" x="160.516" y="4.1" width="21.968" height="46.8" filterUnits="userSpaceOnUse" color-interpolation-filters="sRGB">
<feFlood flood-opacity="0" result="BackgroundImageFix"/>
<feBlend mode="normal" in="SourceGraphic" in2="BackgroundImageFix" result="shape"/>
<feGaussianBlur stdDeviation="1.45" result="effect1_foregroundBlur_7_607"/>
</filter>
<filter id="filter1_f_7_607" x="154.32" y="17.1" width="14.3596" height="26.8" filterUnits="userSpaceOnUse" color-interpolation-filters="sRGB">
<feFlood flood-opacity="0" result="BackgroundImageFix"/>
<feBlend mode="normal" in="SourceGraphic" in2="BackgroundImageFix" result="shape"/>
<feGaussianBlur stdDeviation="1.45" result="effect1_foregroundBlur_7_607"/>
</filter>
<filter id="filter2_f_7_607" x="199.32" y="12.1" width="14.3596" height="26.8" filterUnits="userSpaceOnUse" color-interpolation-filters="sRGB">
<feFlood flood-opacity="0" result="BackgroundImageFix"/>
<feBlend mode="normal" in="SourceGraphic" in2="BackgroundImageFix" result="shape"/>
<feGaussianBlur stdDeviation="1.45" result="effect1_foregroundBlur_7_607"/>
</filter>
<filter id="filter3_f_7_607" x="119.369" y="14.1" width="16.2614" height="32.8" filterUnits="userSpaceOnUse" color-interpolation-filters="sRGB">
<feFlood flood-opacity="0" result="BackgroundImageFix"/>
<feBlend mode="normal" in="SourceGraphic" in2="BackgroundImageFix" result="shape"/>
<feGaussianBlur stdDeviation="1.45" result="effect1_foregroundBlur_7_607"/>
</filter>
<filter id="filter4_f_7_607" x="99.3693" y="13.1" width="16.2614" height="32.8" filterUnits="userSpaceOnUse" color-interpolation-filters="sRGB">
<feFlood flood-opacity="0" result="BackgroundImageFix"/>
<feBlend mode="normal" in="SourceGraphic" in2="BackgroundImageFix" result="shape"/>
<feGaussianBlur stdDeviation="1.45" result="effect1_foregroundBlur_7_607"/>
</filter>
<filter id="filter5_f_7_607" x="65.3693" y="13.1" width="16.2614" height="32.8" filterUnits="userSpaceOnUse" color-interpolation-filters="sRGB">
<feFlood flood-opacity="0" result="BackgroundImageFix"/>
<feBlend mode="normal" in="SourceGraphic" in2="BackgroundImageFix" result="shape"/>
<feGaussianBlur stdDeviation="1.45" result="effect1_foregroundBlur_7_607"/>
</filter>
<filter id="filter6_f_7_607" x="45.3692" y="14.1" width="16.2615" height="32.8" filterUnits="userSpaceOnUse" color-interpolation-filters="sRGB">
<feFlood flood-opacity="0" result="BackgroundImageFix"/>
<feBlend mode="normal" in="SourceGraphic" in2="BackgroundImageFix" result="shape"/>
<feGaussianBlur stdDeviation="1.45" result="effect1_foregroundBlur_7_607"/>
</filter>
<filter id="filter7_f_7_607" x="1.0801" y="11.8817" width="18.993" height="31.3441" filterUnits="userSpaceOnUse" color-interpolation-filters="sRGB">
<feFlood flood-opacity="0" result="BackgroundImageFix"/>
<feBlend mode="normal" in="SourceGraphic" in2="BackgroundImageFix" result="shape"/>
<feGaussianBlur stdDeviation="1.45" result="effect1_foregroundBlur_7_607"/>
</filter>
<filter id="filter8_f_7_607" x="26.4719" y="12.1606" width="16.353" height="32.7984" filterUnits="userSpaceOnUse" color-interpolation-filters="sRGB">
<feFlood flood-opacity="0" result="BackgroundImageFix"/>
<feBlend mode="normal" in="SourceGraphic" in2="BackgroundImageFix" result="shape"/>
<feGaussianBlur stdDeviation="1.45" result="effect1_foregroundBlur_7_607"/>
</filter>
<linearGradient id="paint0_linear_7_607" x1="110" y1="0" x2="110" y2="56" gradientUnits="userSpaceOnUse">
<stop offset="0.2" stop-color="#B69616"/>
<stop offset="0.539213" stop-color="#EFDC7B"/>
<stop offset="0.8" stop-color="#B69616"/>
</linearGradient>
</defs>
</svg>
