<svg width="222" height="79" viewBox="0 0 222 79" fill="none" xmlns="http://www.w3.org/2000/svg">
<path d="M17.8142 24.664L27.7231 3.09562C27.9873 3.13966 28.3506 3.17269 28.813 3.19471C29.2975 3.19471 29.7929 3.19471 30.2994 3.19471C30.8278 3.19471 31.3233 3.1837 31.7857 3.16168C32.2481 3.13966 32.6115 3.10663 32.8757 3.06259V3.92136C31.6866 3.92136 30.8609 4.16358 30.3985 4.64801C29.9581 5.13245 29.7379 5.89213 29.7379 6.92706L30.1012 23.2768C30.1232 24.0034 30.1893 24.609 30.2994 25.0934C30.4095 25.5558 30.6077 25.9191 30.8939 26.1834C31.1581 26.4476 31.5435 26.6348 32.0499 26.7449C32.5564 26.855 33.228 26.91 34.0648 26.91V27.7358C33.5363 27.7358 32.8206 27.7358 31.9178 27.7358C31.015 27.7358 30.0792 27.7358 29.1103 27.7358C28.1414 27.7358 27.2166 27.7358 26.3358 27.7358C25.455 27.7358 24.7724 27.7358 24.288 27.7358V26.91C25.0146 26.91 25.6092 26.866 26.0716 26.7779C26.556 26.6678 26.9303 26.4806 27.1946 26.2164C27.4588 25.9522 27.646 25.5888 27.7561 25.1264C27.8662 24.642 27.9212 24.0254 27.9212 23.2768L27.69 5.9692L17.5829 27.967H17.0875L7.14557 6.59677L6.81527 23.3758C6.81527 24.653 6.99143 25.5558 7.34374 26.0843C7.69606 26.5907 8.43372 26.866 9.55673 26.91V27.7358C9.02826 27.7358 8.4117 27.7358 7.70707 27.7358C7.00244 27.7137 6.27578 27.7027 5.52711 27.7027C4.77844 27.7027 4.05179 27.7027 3.34715 27.7027C2.64252 27.7027 2.01495 27.7137 1.46446 27.7358V26.91C2.19111 26.888 2.80767 26.833 3.31412 26.7449C3.8426 26.6568 4.27198 26.4916 4.60228 26.2494C4.93258 25.9852 5.17479 25.6219 5.32893 25.1594C5.50509 24.697 5.61519 24.0695 5.65923 23.2768L6.08862 6.96009C6.08862 5.8591 5.82438 5.0774 5.2959 4.61498C4.76743 4.15257 3.98573 3.92136 2.9508 3.92136V3.06259C3.30311 3.10663 3.69947 3.13966 4.13986 3.16168C4.60228 3.16168 5.05369 3.16168 5.49408 3.16168C5.93448 3.16168 6.35285 3.16168 6.74921 3.16168C7.14557 3.13966 7.46485 3.10663 7.70707 3.06259L17.8142 24.664ZM40.5716 24.697C40.5716 25.6439 40.7257 26.2494 41.034 26.5137C41.3423 26.7779 41.9809 26.91 42.9497 26.91V27.7358C42.6415 27.7358 42.3552 27.7358 42.091 27.7358C41.8267 27.7358 41.5625 27.7248 41.2983 27.7027C41.034 27.7027 40.7588 27.7027 40.4725 27.7027C40.2083 27.6807 39.922 27.6697 39.6137 27.6697C39.2834 27.6697 38.9752 27.6807 38.6889 27.7027C38.4247 27.7027 38.1604 27.7027 37.8962 27.7027C37.6099 27.7027 37.3237 27.7137 37.0374 27.7358C36.7732 27.7358 36.4869 27.7358 36.1787 27.7358V26.91C37.1475 26.91 37.7861 26.7779 38.0944 26.5137C38.4027 26.2494 38.5568 25.6439 38.5568 24.697V16.6048C38.5568 16.0102 38.5348 15.5368 38.4907 15.1845C38.4467 14.8322 38.3586 14.5569 38.2265 14.3587C38.0944 14.1606 37.8962 14.0284 37.632 13.9624C37.3677 13.8963 37.0044 13.8633 36.542 13.8633V13.1697C37.2466 13.0596 37.8852 12.8944 38.4577 12.6742C39.0522 12.454 39.6027 12.1127 40.1092 11.6503H40.7037C40.6377 12.2448 40.5936 12.8834 40.5716 13.566C40.5716 14.2266 40.5716 14.8212 40.5716 15.3496V24.697ZM37.8632 4.41681C37.8632 3.97641 38.0173 3.59106 38.3256 3.26077C38.6559 2.93047 39.0412 2.76532 39.4816 2.76532C39.922 2.76532 40.3074 2.93047 40.6377 3.26077C40.968 3.59106 41.1331 3.97641 41.1331 4.41681C41.1331 4.8572 40.968 5.24255 40.6377 5.57285C40.3074 5.88112 39.922 6.03526 39.4816 6.03526C39.0412 6.03526 38.6559 5.88112 38.3256 5.57285C38.0173 5.24255 37.8632 4.8572 37.8632 4.41681ZM49.6217 11.6503C49.5557 12.2448 49.5116 12.8284 49.4896 13.4009C49.4896 13.9734 49.4896 14.4028 49.4896 14.689C50.4805 13.9624 51.5485 13.2688 52.6935 12.6082C53.8385 11.9476 54.9395 11.6173 55.9965 11.6173C57.3177 11.6173 58.2645 12.1017 58.837 13.0706C59.4095 14.0174 59.6958 15.1735 59.6958 16.5387V24.3667C59.6958 25.2916 59.8499 25.9522 60.1582 26.3485C60.4665 26.7229 61.1161 26.91 62.107 26.91V27.7358C61.7987 27.7358 61.5014 27.7358 61.2152 27.7358C60.9509 27.7358 60.6867 27.7248 60.4224 27.7027C60.1582 27.7027 59.883 27.7027 59.5967 27.7027C59.3325 27.6807 59.0462 27.6697 58.7379 27.6697C58.4076 27.6697 58.0994 27.6807 57.8131 27.7027C57.5489 27.7027 57.2846 27.7027 57.0204 27.7027C56.7562 27.7027 56.4809 27.7137 56.1946 27.7358C55.9304 27.7358 55.6442 27.7358 55.3359 27.7358V26.91C56.2827 26.91 56.9103 26.7229 57.2186 26.3485C57.5268 25.9522 57.681 25.2916 57.681 24.3667V16.5057C57.681 15.4047 57.4278 14.612 56.9213 14.1275C56.4148 13.6431 55.5781 13.4009 54.411 13.4009C54.0807 13.4229 53.6954 13.511 53.255 13.6651C52.8146 13.7972 52.3742 13.9624 51.9338 14.1606C51.4714 14.3808 51.02 14.623 50.5796 14.8872C50.1612 15.1515 49.7979 15.4157 49.4896 15.6799V24.3667C49.4896 25.2916 49.6438 25.9522 49.952 26.3485C50.2603 26.7229 50.9099 26.91 51.9008 26.91V27.7358C51.5705 27.7358 51.2732 27.7358 51.009 27.7358C50.7447 27.7358 50.4805 27.7248 50.2163 27.7027C49.952 27.7027 49.6768 27.7027 49.3905 27.7027C49.1263 27.6807 48.84 27.6697 48.5318 27.6697C48.2015 27.6697 47.8932 27.6807 47.6069 27.7027C47.3427 27.7027 47.0785 27.7027 46.8142 27.7027C46.528 27.7027 46.2417 27.7137 45.9554 27.7358C45.6912 27.7358 45.4049 27.7358 45.0967 27.7358V26.91C46.0655 26.91 46.6931 26.7229 46.9794 26.3485C47.2876 25.9522 47.4418 25.2916 47.4418 24.3667V16.6048C47.4418 16.0102 47.4198 15.5368 47.3757 15.1845C47.3537 14.8322 47.2766 14.5569 47.1445 14.3587C47.0124 14.1606 46.8142 14.0284 46.55 13.9624C46.2857 13.8963 45.9224 13.8633 45.46 13.8633V13.1697C46.1646 13.0596 46.8032 12.8944 47.3757 12.6742C47.9703 12.454 48.5097 12.1127 48.9942 11.6503H49.6217ZM66.4338 5.93617C66.4338 5.36366 66.4008 4.91225 66.3348 4.58195C66.2907 4.22964 66.1916 3.95439 66.0375 3.75621C65.8834 3.58005 65.6521 3.46996 65.3439 3.42592C65.0576 3.38188 64.6833 3.35986 64.2209 3.35986V2.69926C64.9255 2.56714 65.6081 2.36897 66.2687 2.10473C66.9513 1.81847 67.5458 1.44413 68.0523 0.981719H68.6468C68.5808 1.57625 68.5367 2.21483 68.5147 2.89744C68.4927 3.55803 68.4817 4.15257 68.4817 4.68104V15.2505C68.812 14.8762 69.1863 14.4798 69.6047 14.0615C70.0451 13.6431 70.5075 13.2467 70.9919 12.8724C71.4984 12.5201 72.0269 12.2228 72.5774 11.9806C73.1499 11.7384 73.7334 11.6173 74.3279 11.6173C75.6932 11.6173 76.7611 12.1237 77.5318 13.1366C78.3025 14.1496 78.6879 15.4157 78.6879 16.9351V24.3337C78.6879 24.8402 78.6989 25.2585 78.7209 25.5888C78.7649 25.9191 78.864 26.1834 79.0182 26.3815C79.1723 26.5797 79.4145 26.7229 79.7448 26.8109C80.0751 26.877 80.5265 26.91 81.099 26.91V27.7358C80.7908 27.7358 80.4935 27.7358 80.2072 27.7358C79.943 27.7358 79.6788 27.7248 79.4145 27.7027C79.1503 27.7027 78.875 27.7027 78.5888 27.7027C78.3025 27.6807 77.9942 27.6697 77.6639 27.6697C77.3336 27.6697 77.0254 27.6807 76.7391 27.7027C76.4749 27.7027 76.2106 27.7027 75.9464 27.7027C75.6822 27.7027 75.4069 27.7137 75.1207 27.7358C74.8564 27.7358 74.5702 27.7358 74.2619 27.7358V26.91C74.7463 26.91 75.1427 26.888 75.451 26.844C75.7812 26.7999 76.0345 26.6898 76.2106 26.5137C76.3868 26.3375 76.5079 26.0843 76.574 25.754C76.64 25.4017 76.6731 24.9282 76.6731 24.3337V18.9829C76.6731 17.9039 76.607 17.0231 76.4749 16.3405C76.3648 15.6359 76.1666 15.0744 75.8803 14.656C75.6161 14.2376 75.2528 13.9514 74.7904 13.7972C74.35 13.6211 73.7995 13.533 73.1389 13.533C72.3241 13.533 71.4764 13.8413 70.5956 14.4578C69.7148 15.0524 69.0102 15.713 68.4817 16.4396V24.3337C68.4817 25.3686 68.6138 26.0623 68.878 26.4146C69.1643 26.7449 69.8359 26.91 70.8929 26.91V27.7358C70.5626 27.7358 70.2653 27.7358 70.0011 27.7358C69.7368 27.7358 69.4726 27.7248 69.2083 27.7027C68.9441 27.7027 68.6689 27.7027 68.3826 27.7027C68.1184 27.6807 67.8321 27.6697 67.5238 27.6697C67.1935 27.6697 66.8853 27.6807 66.599 27.7027C66.3348 27.7027 66.0705 27.7027 65.8063 27.7027C65.52 27.7027 65.2338 27.7137 64.9475 27.7358C64.6833 27.7358 64.397 27.7358 64.0887 27.7358V26.91C65.0796 26.91 65.7182 26.7449 66.0045 26.4146C66.2907 26.0843 66.4338 25.3907 66.4338 24.3337V5.93617ZM92.8906 19.6765C90.4684 20.4032 88.6518 21.0858 87.4407 21.7244C86.2517 22.3409 85.6571 23.1336 85.6571 24.1025C85.6571 25.1154 85.9104 25.809 86.4168 26.1834C86.9453 26.5357 87.6719 26.7118 88.5968 26.7118C89.4115 26.7118 90.1932 26.4916 90.9419 26.0512C91.6905 25.6109 92.3401 25.0934 92.8906 24.4989V19.6765ZM97.8781 26.4806C97.3937 26.9431 96.8762 27.3614 96.3257 27.7358C95.7972 28.1101 95.2578 28.2973 94.7073 28.2973C94.1788 28.2973 93.7494 28.055 93.4191 27.5706C93.1108 27.0862 92.9347 26.3815 92.8906 25.4567C92.0759 26.3155 91.1731 27.0091 90.1822 27.5376C89.1913 28.044 88.1564 28.2973 87.0774 28.2973C86.0865 28.2973 85.2498 27.978 84.5671 27.3394C83.8845 26.6788 83.5652 25.8531 83.6093 24.8622C83.6313 24.0474 83.8735 23.3538 84.3359 22.7813C84.8204 22.1868 85.481 21.6693 86.3177 21.2289C87.1325 20.7885 88.1013 20.3812 89.2243 20.0068C90.3473 19.6325 91.5694 19.2361 92.8906 18.8177V16.5387C92.8906 15.5698 92.6594 14.7771 92.197 14.1606C91.7566 13.522 90.8868 13.2027 89.5877 13.2027C88.6628 13.2027 87.8371 13.4779 87.1104 14.0284C86.4058 14.5569 86.0425 15.2065 86.0205 15.9772C86.0205 16.5057 85.9104 16.891 85.6902 17.1332C85.492 17.3755 85.2387 17.4966 84.9305 17.4966C84.6662 17.4966 84.457 17.3865 84.3029 17.1663C84.1708 16.9461 84.1047 16.6598 84.1047 16.3075C84.1047 15.713 84.38 15.1404 84.9305 14.5899C85.503 14.0395 86.4168 13.4339 87.6719 12.7733C88.3986 12.377 88.9931 12.0907 89.4555 11.9145C89.94 11.7384 90.4464 11.6503 90.9749 11.6503C92.0319 11.6503 92.9457 11.9696 93.7164 12.6082C94.5091 13.2467 94.9054 14.1716 94.9054 15.3827V24.3998C94.9054 25.6329 95.1697 26.3375 95.6981 26.5137C96.2486 26.6898 96.9423 26.4916 97.779 25.9191L97.8781 26.4806ZM113.6 23.4089C113.16 24.62 113.061 25.5118 113.303 26.0843C113.545 26.6348 114.404 26.91 115.879 26.91V27.7358C114.778 27.7137 113.567 27.7027 112.246 27.7027C110.925 27.7027 109.736 27.7137 108.679 27.7358V26.844C109.273 26.844 109.758 26.7889 110.132 26.6788C110.506 26.5687 110.826 26.3705 111.09 26.0843C111.354 25.82 111.585 25.4677 111.784 25.0273C111.982 24.5649 112.202 23.9924 112.444 23.3098L119.909 2.0717H120.569L127.803 23.3758C128.023 24.0585 128.254 24.62 128.497 25.0604C128.739 25.5008 129.003 25.8421 129.289 26.0843C129.598 26.3485 129.939 26.5467 130.313 26.6788C130.71 26.7889 131.172 26.866 131.701 26.91V27.7358C131.15 27.7358 130.522 27.7358 129.818 27.7358C129.135 27.7137 128.431 27.7027 127.704 27.7027C126.955 27.7027 126.229 27.7137 125.524 27.7358C124.841 27.7358 124.236 27.7358 123.707 27.7358V26.91C124.412 26.91 124.962 26.866 125.359 26.7779C125.755 26.6898 126.019 26.5137 126.152 26.2494C126.284 25.9852 126.295 25.6219 126.185 25.1594C126.096 24.697 125.942 24.0915 125.722 23.3428L124.038 18.4544H115.318L113.6 23.4089ZM123.674 17.3314L119.777 5.67193L115.747 17.3314H123.674ZM148.546 14.0945L145.078 13.9624C145.298 14.2266 145.496 14.656 145.672 15.2505C145.87 15.8451 145.969 16.3515 145.969 16.7699C145.969 18.5095 145.397 19.8527 144.252 20.7995C143.129 21.7244 141.642 22.1868 139.793 22.1868C139.529 22.1868 139.231 22.1868 138.901 22.1868C138.593 22.1648 138.273 22.1097 137.943 22.0216C137.679 22.2198 137.448 22.396 137.249 22.5501C137.073 22.6822 136.93 22.8143 136.82 22.9465C136.688 23.0786 136.6 23.2217 136.556 23.3758C136.512 23.53 136.49 23.7061 136.49 23.9043C136.49 24.0364 136.501 24.2126 136.523 24.4328C136.545 24.631 136.644 24.8292 136.82 25.0273C136.996 25.2255 137.271 25.4017 137.646 25.5558C138.02 25.6879 138.56 25.754 139.264 25.754C139.683 25.754 140.09 25.765 140.486 25.787C140.905 25.787 141.301 25.787 141.675 25.787C142.072 25.787 142.446 25.787 142.798 25.787C143.151 25.787 143.514 25.787 143.888 25.787C145.276 25.787 146.41 26.0953 147.291 26.7118C148.171 27.3284 148.612 28.3083 148.612 29.6515C148.612 30.4662 148.38 31.2369 147.918 31.9636C147.456 32.7122 146.817 33.3728 146.002 33.9453C145.21 34.5179 144.263 34.9693 143.162 35.2996C142.061 35.6519 140.883 35.828 139.628 35.828C138.571 35.828 137.646 35.6959 136.853 35.4317C136.06 35.1674 135.4 34.8371 134.871 34.4408C134.343 34.0444 133.947 33.604 133.682 33.1196C133.44 32.6352 133.319 32.1397 133.319 31.6333C133.319 30.4882 133.715 29.5634 134.508 28.8588C135.323 28.1541 136.215 27.6587 137.183 27.3724C135.994 27.1082 135.202 26.5907 134.805 25.82C134.431 25.0493 134.365 24.2456 134.607 23.4089C135.07 23.1446 135.543 22.8474 136.027 22.5171C136.512 22.1648 136.853 21.8895 137.051 21.6913C136.237 21.273 135.532 20.7004 134.937 19.9738C134.365 19.2251 134.079 18.2452 134.079 17.0341C134.079 15.4928 134.607 14.2046 135.664 13.1697C136.743 12.1347 138.306 11.6173 140.354 11.6173C140.817 11.6173 141.323 11.6723 141.874 11.7824C142.424 11.8705 142.92 11.9696 143.36 12.0797C143.822 12.2559 144.329 12.41 144.879 12.5421C145.43 12.6522 146.101 12.7073 146.894 12.7073C147.048 12.7073 147.18 12.7183 147.291 12.7403C147.401 12.7403 147.511 12.7293 147.621 12.7073C147.731 12.7073 147.852 12.7073 147.984 12.7073C148.116 12.6852 148.303 12.6522 148.546 12.6082V14.0945ZM135.103 31.1378C135.103 32.3269 135.609 33.2187 136.622 33.8132C137.635 34.4298 138.813 34.7381 140.156 34.7381C141.059 34.7381 141.907 34.639 142.699 34.4408C143.514 34.2426 144.23 33.9674 144.846 33.615C145.441 33.2627 145.914 32.8444 146.267 32.3599C146.619 31.8755 146.795 31.325 146.795 30.7084C146.795 30.1579 146.641 29.6845 146.333 29.2882C146.046 28.9138 145.661 28.6166 145.177 28.3964C144.67 28.1541 144.087 27.989 143.426 27.9009C142.787 27.7908 142.105 27.7358 141.378 27.7358C139.33 27.7358 137.767 28.044 136.688 28.6606C135.631 29.2992 135.103 30.1249 135.103 31.1378ZM136.358 16.6708C136.358 17.9259 136.666 19.0159 137.283 19.9408C137.899 20.8656 138.824 21.328 140.057 21.328C141.466 21.328 142.457 20.9096 143.03 20.0729C143.624 19.2361 143.921 18.2562 143.921 17.1332C143.921 16.6048 143.844 16.0653 143.69 15.5148C143.536 14.9423 143.305 14.4358 142.997 13.9954C142.688 13.555 142.281 13.1917 141.775 12.9054C141.268 12.6192 140.663 12.476 139.958 12.476C139.319 12.476 138.769 12.6082 138.306 12.8724C137.844 13.1366 137.47 13.4669 137.183 13.8633C136.897 14.2817 136.688 14.7441 136.556 15.2505C136.424 15.735 136.358 16.2084 136.358 16.6708ZM152.839 17.959C152.773 18.2893 152.74 18.6416 152.74 19.0159C152.74 19.3903 152.762 19.8747 152.806 20.4692C152.917 22.1427 153.434 23.552 154.359 24.697C155.284 25.82 156.55 26.3815 158.157 26.3815C159.258 26.3815 160.205 26.1724 160.998 25.754C161.813 25.3136 162.484 24.7741 163.013 24.1355L163.475 24.4328C162.858 25.5338 162.022 26.4586 160.965 27.2073C159.93 27.9339 158.763 28.2973 157.464 28.2973C156.517 28.2973 155.636 28.0991 154.821 27.7027C154.029 27.3064 153.335 26.7559 152.74 26.0512C152.146 25.3466 151.672 24.5209 151.32 23.574C150.99 22.6272 150.825 21.5922 150.825 20.4692C150.825 19.082 151.001 17.8379 151.353 16.7369C151.705 15.6359 152.179 14.7111 152.773 13.9624C153.39 13.1917 154.106 12.6082 154.92 12.2118C155.757 11.8155 156.649 11.6173 157.596 11.6173C158.256 11.6173 158.917 11.7274 159.578 11.9476C160.238 12.1678 160.833 12.4981 161.361 12.9385C161.89 13.4009 162.319 13.9844 162.649 14.689C162.98 15.3717 163.156 16.1864 163.178 17.1332C163.178 17.3975 163.145 17.5956 163.079 17.7278C163.013 17.8379 162.847 17.9149 162.583 17.959H152.839ZM159.908 16.902C160.304 16.902 160.59 16.847 160.767 16.7369C160.943 16.6048 161.031 16.3736 161.031 16.0433C161.031 15.6909 160.943 15.3166 160.767 14.9202C160.612 14.5239 160.392 14.1606 160.106 13.8303C159.798 13.5 159.423 13.2247 158.983 13.0045C158.543 12.7843 158.036 12.6742 157.464 12.6742C156.209 12.6742 155.196 13.0706 154.425 13.8633C153.676 14.634 153.181 15.6469 152.939 16.902H159.908ZM170.015 11.6503C169.949 12.2448 169.905 12.8284 169.883 13.4009C169.883 13.9734 169.883 14.4028 169.883 14.689C170.874 13.9624 171.942 13.2688 173.087 12.6082C174.232 11.9476 175.333 11.6173 176.39 11.6173C177.711 11.6173 178.658 12.1017 179.23 13.0706C179.803 14.0174 180.089 15.1735 180.089 16.5387V24.3667C180.089 25.2916 180.243 25.9522 180.551 26.3485C180.86 26.7229 181.509 26.91 182.5 26.91V27.7358C182.192 27.7358 181.895 27.7358 181.608 27.7358C181.344 27.7358 181.08 27.7248 180.816 27.7027C180.551 27.7027 180.276 27.7027 179.99 27.7027C179.726 27.6807 179.439 27.6697 179.131 27.6697C178.801 27.6697 178.493 27.6807 178.206 27.7027C177.942 27.7027 177.678 27.7027 177.414 27.7027C177.149 27.7027 176.874 27.7137 176.588 27.7358C176.324 27.7358 176.037 27.7358 175.729 27.7358V26.91C176.676 26.91 177.303 26.7229 177.612 26.3485C177.92 25.9522 178.074 25.2916 178.074 24.3667V16.5057C178.074 15.4047 177.821 14.612 177.314 14.1275C176.808 13.6431 175.971 13.4009 174.804 13.4009C174.474 13.4229 174.089 13.511 173.648 13.6651C173.208 13.7972 172.767 13.9624 172.327 14.1606C171.865 14.3808 171.413 14.623 170.973 14.8872C170.554 15.1515 170.191 15.4157 169.883 15.6799V24.3667C169.883 25.2916 170.037 25.9522 170.345 26.3485C170.653 26.7229 171.303 26.91 172.294 26.91V27.7358C171.964 27.7358 171.666 27.7358 171.402 27.7358C171.138 27.7358 170.874 27.7248 170.609 27.7027C170.345 27.7027 170.07 27.7027 169.784 27.7027C169.519 27.6807 169.233 27.6697 168.925 27.6697C168.595 27.6697 168.286 27.6807 168 27.7027C167.736 27.7027 167.472 27.7027 167.207 27.7027C166.921 27.7027 166.635 27.7137 166.349 27.7358C166.084 27.7358 165.798 27.7358 165.49 27.7358V26.91C166.459 26.91 167.086 26.7229 167.373 26.3485C167.681 25.9522 167.835 25.2916 167.835 24.3667V16.6048C167.835 16.0102 167.813 15.5368 167.769 15.1845C167.747 14.8322 167.67 14.5569 167.538 14.3587C167.406 14.1606 167.207 14.0284 166.943 13.9624C166.679 13.8963 166.316 13.8633 165.853 13.8633V13.1697C166.558 13.0596 167.196 12.8944 167.769 12.6742C168.363 12.454 168.903 12.1127 169.387 11.6503H170.015ZM197.132 15.9772C197.132 15.3386 196.989 14.8101 196.703 14.3918C196.417 13.9514 196.075 13.6101 195.679 13.3679C195.261 13.1256 194.809 12.9495 194.325 12.8394C193.84 12.7293 193.389 12.6742 192.971 12.6742C192.266 12.6742 191.561 12.8284 190.857 13.1366C190.174 13.4229 189.568 13.8633 189.04 14.4578C188.49 15.0524 188.049 15.801 187.719 16.7038C187.389 17.5846 187.223 18.6196 187.223 19.8086C187.223 21.7464 187.719 23.3428 188.71 24.5979C189.723 25.8531 191.132 26.4806 192.938 26.4806C193.224 26.4806 193.609 26.4256 194.094 26.3155C194.578 26.1834 195.04 26.0072 195.481 25.787C195.921 25.5668 196.307 25.3136 196.637 25.0273C196.967 24.7411 197.132 24.4328 197.132 24.1025V15.9772ZM197.132 5.93617C197.132 5.36366 197.099 4.91225 197.033 4.58195C196.989 4.22964 196.879 3.95439 196.703 3.75621C196.549 3.58005 196.318 3.46996 196.009 3.42592C195.723 3.38188 195.349 3.35986 194.886 3.35986V2.69926C195.591 2.56714 196.274 2.36897 196.934 2.10473C197.617 1.81847 198.211 1.44413 198.718 0.981719H199.312C199.246 1.57625 199.202 2.21483 199.18 2.89744C199.158 3.55803 199.147 4.15257 199.147 4.68104V24.7301C199.147 25.4787 199.334 25.9301 199.709 26.0843C200.105 26.2164 200.699 26.2604 201.492 26.2164V26.877C201.074 27.0091 200.468 27.2293 199.676 27.5376C198.905 27.8459 198.189 28.1431 197.529 28.4294C197.397 28.4954 197.297 28.4954 197.231 28.4294C197.165 28.3853 197.132 28.2973 197.132 28.1651V25.6879C196.229 26.5467 195.294 27.1963 194.325 27.6367C193.378 28.055 192.442 28.2642 191.517 28.2642C190.548 28.2642 189.657 28.055 188.842 27.6367C188.049 27.1963 187.367 26.6128 186.794 25.8861C186.221 25.1815 185.781 24.3667 185.473 23.4419C185.165 22.4951 185.01 21.5262 185.01 20.5353C185.01 19.3462 185.231 18.2122 185.671 17.1332C186.111 16.0543 186.717 15.1074 187.488 14.2927C188.236 13.4779 189.117 12.8284 190.13 12.3439C191.143 11.8595 192.222 11.6173 193.367 11.6173C193.895 11.6173 194.446 11.6833 195.018 11.8155C195.613 11.9256 196.318 12.1678 197.132 12.5421V5.93617ZM213.284 19.6765C210.862 20.4032 209.045 21.0858 207.834 21.7244C206.645 22.3409 206.05 23.1336 206.05 24.1025C206.05 25.1154 206.304 25.809 206.81 26.1834C207.338 26.5357 208.065 26.7118 208.99 26.7118C209.805 26.7118 210.586 26.4916 211.335 26.0512C212.084 25.6109 212.733 25.0934 213.284 24.4989V19.6765ZM218.271 26.4806C217.787 26.9431 217.269 27.3614 216.719 27.7358C216.19 28.1101 215.651 28.2973 215.1 28.2973C214.572 28.2973 214.143 28.055 213.812 27.5706C213.504 27.0862 213.328 26.3815 213.284 25.4567C212.469 26.3155 211.566 27.0091 210.575 27.5376C209.584 28.044 208.55 28.2973 207.471 28.2973C206.48 28.2973 205.643 27.978 204.96 27.3394C204.278 26.6788 203.958 25.8531 204.002 24.8622C204.024 24.0474 204.267 23.3538 204.729 22.7813C205.214 22.1868 205.874 21.6693 206.711 21.2289C207.526 20.7885 208.494 20.3812 209.618 20.0068C210.741 19.6325 211.963 19.2361 213.284 18.8177V16.5387C213.284 15.5698 213.053 14.7771 212.59 14.1606C212.15 13.522 211.28 13.2027 209.981 13.2027C209.056 13.2027 208.23 13.4779 207.504 14.0284C206.799 14.5569 206.436 15.2065 206.414 15.9772C206.414 16.5057 206.304 16.891 206.083 17.1332C205.885 17.3755 205.632 17.4966 205.324 17.4966C205.059 17.4966 204.85 17.3865 204.696 17.1663C204.564 16.9461 204.498 16.6598 204.498 16.3075C204.498 15.713 204.773 15.1404 205.324 14.5899C205.896 14.0395 206.81 13.4339 208.065 12.7733C208.792 12.377 209.386 12.0907 209.849 11.9145C210.333 11.7384 210.84 11.6503 211.368 11.6503C212.425 11.6503 213.339 11.9696 214.11 12.6082C214.902 13.2467 215.299 14.1716 215.299 15.3827V24.3998C215.299 25.6329 215.563 26.3375 216.091 26.5137C216.642 26.6898 217.335 26.4916 218.172 25.9191L218.271 26.4806Z" fill="url(#paint0_linear_50_53)"/>
<path d="M2.61719 63.8516H3.71094C3.89323 64.6328 4.10156 65.401 4.33594 66.1562C4.57031 66.9115 4.89583 67.5755 5.3125 68.1484C5.75521 68.7474 6.3151 69.2292 6.99219 69.5938C7.66927 69.9323 8.55469 70.1016 9.64844 70.1016C11.6536 70.1016 13.2943 69.5677 14.5703 68.5C15.8464 67.4323 16.4844 66.0911 16.4844 64.4766C16.4844 63.5391 16.3151 62.7188 15.9766 62.0156C15.638 61.2865 15.1953 60.6484 14.6484 60.1016C14.0755 59.5547 13.4115 59.0599 12.6562 58.6172C11.9271 58.1745 11.1589 57.7318 10.3516 57.2891C9.51823 56.8724 8.69792 56.4036 7.89062 55.8828C7.08333 55.362 6.34115 54.776 5.66406 54.125C5.01302 53.4479 4.47917 52.6927 4.0625 51.8594C3.67188 51 3.47656 50.0365 3.47656 48.9688C3.47656 47.5885 3.69792 46.3906 4.14062 45.375C4.58333 44.3594 5.19531 43.526 5.97656 42.875C6.75781 42.1979 7.66927 41.7031 8.71094 41.3906C9.7526 41.0521 10.8724 40.8828 12.0703 40.8828C12.4609 40.8828 12.8385 40.9089 13.2031 40.9609C13.5677 40.987 13.9323 41.013 14.2969 41.0391C14.6615 41.0911 15.026 41.1562 15.3906 41.2344C15.7812 41.2865 16.1979 41.3385 16.6406 41.3906L17.3047 46.7812H16.2891C16.0286 45.2188 15.5729 44.0469 14.9219 43.2656C14.2708 42.4844 13.125 42.0938 11.4844 42.0938C9.45312 42.0938 7.92969 42.6406 6.91406 43.7344C5.92448 44.8021 5.42969 46.0781 5.42969 47.5625C5.42969 48.5 5.63802 49.3464 6.05469 50.1016C6.47135 50.8307 7.00521 51.4948 7.65625 52.0938C8.33333 52.6927 9.08854 53.2266 9.92188 53.6953C10.7552 54.1641 11.6016 54.6068 12.4609 55.0234C13.2943 55.4661 14.0885 55.9349 14.8438 56.4297C15.625 56.8984 16.3151 57.4323 16.9141 58.0312C17.513 58.6562 17.9948 59.3724 18.3594 60.1797C18.724 60.9609 18.9062 61.8594 18.9062 62.875C18.9062 64.2812 18.6198 65.5182 18.0469 66.5859C17.5 67.6276 16.7839 68.513 15.8984 69.2422C14.987 69.9453 13.9583 70.4792 12.8125 70.8438C11.6927 71.1823 10.5599 71.3516 9.41406 71.3516C8.34635 71.3516 7.30469 71.2474 6.28906 71.0391C5.29948 70.8307 4.38802 70.5312 3.55469 70.1406L2.61719 63.8516ZM24.8828 59.125C24.8047 59.5156 24.7656 59.9323 24.7656 60.375C24.7656 60.8177 24.7917 61.3906 24.8438 62.0938C24.974 64.0729 25.5859 65.7396 26.6797 67.0938C27.7734 68.4219 29.2708 69.0859 31.1719 69.0859C32.474 69.0859 33.5938 68.8385 34.5312 68.3438C35.4948 67.8229 36.2891 67.1849 36.9141 66.4297L37.4609 66.7812C36.7318 68.0833 35.7422 69.1771 34.4922 70.0625C33.2682 70.9219 31.888 71.3516 30.3516 71.3516C29.2318 71.3516 28.1901 71.1172 27.2266 70.6484C26.2891 70.1797 25.4688 69.5286 24.7656 68.6953C24.0625 67.862 23.5026 66.8854 23.0859 65.7656C22.6953 64.6458 22.5 63.4219 22.5 62.0938C22.5 60.4531 22.7083 58.9818 23.125 57.6797C23.5417 56.3776 24.1016 55.2839 24.8047 54.3984C25.5339 53.487 26.3802 52.7969 27.3438 52.3281C28.3333 51.8594 29.388 51.625 30.5078 51.625C31.2891 51.625 32.0703 51.7552 32.8516 52.0156C33.6328 52.276 34.3359 52.6667 34.9609 53.1875C35.5859 53.7344 36.0938 54.4245 36.4844 55.2578C36.875 56.0651 37.0833 57.0286 37.1094 58.1484C37.1094 58.4609 37.0703 58.6953 36.9922 58.8516C36.9141 58.9818 36.7188 59.0729 36.4062 59.125H24.8828ZM33.2422 57.875C33.7109 57.875 34.0495 57.8099 34.2578 57.6797C34.4661 57.5234 34.5703 57.25 34.5703 56.8594C34.5703 56.4427 34.4661 56 34.2578 55.5312C34.0755 55.0625 33.8151 54.6328 33.4766 54.2422C33.112 53.8516 32.6693 53.526 32.1484 53.2656C31.6276 53.0052 31.0286 52.875 30.3516 52.875C28.8672 52.875 27.6693 53.3438 26.7578 54.2812C25.8724 55.1927 25.2865 56.3906 25 57.875H33.2422ZM45.1953 51.6641C45.1172 52.3672 45.0651 53.0703 45.0391 53.7734C45.0391 54.4766 45.0391 54.9844 45.0391 55.2969C45.5859 54.9062 46.1589 54.4896 46.7578 54.0469C47.3828 53.6042 48.0078 53.2135 48.6328 52.875C49.2839 52.5104 49.9349 52.2109 50.5859 51.9766C51.237 51.7422 51.888 51.625 52.5391 51.625C53.4766 51.625 54.3099 51.8984 55.0391 52.4453C55.7943 52.9661 56.3542 53.8906 56.7188 55.2188C57.8125 54.3594 58.9974 53.5521 60.2734 52.7969C61.5495 52.0156 62.8385 51.625 64.1406 51.625C64.9219 51.625 65.5859 51.7943 66.1328 52.1328C66.7057 52.4453 67.1745 52.875 67.5391 53.4219C67.9036 53.9688 68.1771 54.6068 68.3594 55.3359C68.5417 56.0391 68.6328 56.7682 68.6328 57.5234V66.8203C68.6328 67.9141 68.8021 68.6693 69.1406 69.0859C69.5052 69.5026 70.2344 69.7109 71.3281 69.7109V70.6875C70.2604 70.6615 68.9714 70.6484 67.4609 70.6484C65.9766 70.6224 64.6615 70.6354 63.5156 70.6875V69.7109C64.6354 69.7109 65.3646 69.5026 65.7031 69.0859C66.0677 68.6693 66.25 67.9141 66.25 66.8203V58.9688C66.25 58.2656 66.2109 57.6016 66.1328 56.9766C66.0547 56.3255 65.8854 55.7656 65.625 55.2969C65.3646 54.8281 64.974 54.4505 64.4531 54.1641C63.9583 53.8776 63.2682 53.7344 62.3828 53.7344C61.888 53.7344 61.3672 53.8385 60.8203 54.0469C60.2995 54.2292 59.7786 54.4635 59.2578 54.75C58.763 55.0104 58.2943 55.2969 57.8516 55.6094C57.4349 55.9219 57.0964 56.1823 56.8359 56.3906V66.8203C56.8359 67.9141 57.0182 68.6693 57.3828 69.0859C57.7734 69.5026 58.5417 69.7109 59.6875 69.7109V70.6875C59.1146 70.6875 58.4766 70.6875 57.7734 70.6875C57.0964 70.6615 56.4062 70.6484 55.7031 70.6484C54.974 70.6484 54.2578 70.6484 53.5547 70.6484C52.8776 70.6484 52.2656 70.6615 51.7188 70.6875V69.7109C52.8125 69.7109 53.5286 69.5026 53.8672 69.0859C54.2318 68.6693 54.4141 67.9141 54.4141 66.8203V58.9688C54.4141 58.2656 54.375 57.6016 54.2969 56.9766C54.2448 56.3255 54.0885 55.7656 53.8281 55.2969C53.5677 54.8281 53.1901 54.4505 52.6953 54.1641C52.2005 53.8776 51.5104 53.7344 50.625 53.7344C50.2344 53.7344 49.7917 53.8255 49.2969 54.0078C48.8281 54.1641 48.3333 54.3724 47.8125 54.6328C47.2917 54.9193 46.7839 55.2318 46.2891 55.5703C45.8203 55.8828 45.4036 56.2083 45.0391 56.5469V66.8203C45.0391 67.9141 45.2083 68.6693 45.5469 69.0859C45.9115 69.5026 46.6536 69.7109 47.7734 69.7109V70.6875C46.6536 70.6615 45.3255 70.6484 43.7891 70.6484C42.2786 70.6224 40.9375 70.6354 39.7656 70.6875V69.7109C40.9375 69.7109 41.7057 69.5026 42.0703 69.0859C42.4349 68.6693 42.6172 67.9141 42.6172 66.8203V57.5234C42.6172 56.8203 42.5911 56.2604 42.5391 55.8438C42.513 55.4271 42.4219 55.1016 42.2656 54.8672C42.1094 54.6328 41.875 54.4766 41.5625 54.3984C41.25 54.3203 40.8203 54.2812 40.2734 54.2812V53.4609C41.1068 53.3307 41.862 53.1354 42.5391 52.875C43.2422 52.6146 43.8802 52.2109 44.4531 51.6641H45.1953ZM90.8984 54.75H96.7969C97.9427 54.75 98.737 54.5026 99.1797 54.0078C99.6484 53.513 99.8828 52.5625 99.8828 51.1562H100.82V60.4141H99.8828C99.8828 59.5807 99.8307 58.9036 99.7266 58.3828C99.6484 57.862 99.4922 57.4583 99.2578 57.1719C99.0234 56.8594 98.6979 56.651 98.2812 56.5469C97.8906 56.4427 97.3828 56.3906 96.7578 56.3906H90.8984V65.6094C90.8984 66.4427 90.9505 67.1198 91.0547 67.6406C91.1849 68.1354 91.4453 68.513 91.8359 68.7734C92.2005 69.0599 92.7083 69.2552 93.3594 69.3594C94.0365 69.4375 94.9089 69.4766 95.9766 69.4766H98.6719C99.7656 69.4766 100.677 69.3984 101.406 69.2422C102.135 69.0859 102.747 68.8125 103.242 68.4219C103.737 68.0312 104.154 67.5104 104.492 66.8594C104.831 66.1823 105.169 65.3359 105.508 64.3203H106.523C106.341 64.8411 106.159 65.375 105.977 65.9219C105.82 66.4427 105.664 66.9635 105.508 67.4844C105.352 68.0312 105.208 68.5781 105.078 69.125C104.948 69.6458 104.831 70.1667 104.727 70.6875C101.315 70.6354 97.8646 70.6094 94.375 70.6094C90.8854 70.6094 87.5391 70.6354 84.3359 70.6875V69.7109C85.9766 69.7109 87.0443 69.4375 87.5391 68.8906C88.0339 68.3438 88.2812 67.25 88.2812 65.6094V46.2734C88.2812 45.4661 88.2161 44.8151 88.0859 44.3203C87.9818 43.8255 87.7734 43.4479 87.4609 43.1875C87.1745 42.9531 86.7708 42.7969 86.25 42.7188C85.7552 42.6146 85.1172 42.5625 84.3359 42.5625V41.5469C87.4609 41.625 90.6771 41.6641 93.9844 41.6641C97.2917 41.6641 100.417 41.625 103.359 41.5469V47.7969H102.539C102.435 46.7292 102.279 45.8698 102.07 45.2188C101.888 44.5417 101.576 44.0208 101.133 43.6562C100.716 43.3177 100.143 43.0833 99.4141 42.9531C98.6849 42.8229 97.7344 42.7578 96.5625 42.7578H90.8984V54.75ZM113.789 68.0703C113.268 68.7214 113.086 69.1641 113.242 69.3984C113.398 69.6068 114.036 69.7109 115.156 69.7109V70.6875C114.089 70.6354 112.917 70.6094 111.641 70.6094C110.391 70.6094 109.232 70.6354 108.164 70.6875V69.7109C109.154 69.7109 109.974 69.6068 110.625 69.3984C111.302 69.1641 112.057 68.5391 112.891 67.5234L117.656 61.9375L112.305 55.1406C111.836 54.5938 111.315 54.1641 110.742 53.8516C110.195 53.513 109.583 53.3307 108.906 53.3047V52.2109C110.078 52.263 111.354 52.2891 112.734 52.2891C114.141 52.2891 115.482 52.263 116.758 52.2109V53.2656C115.794 53.2656 115.156 53.4089 114.844 53.6953C114.557 53.9818 114.674 54.4766 115.195 55.1797L119.141 60.1797L123.359 55.2578C123.828 54.5807 123.945 54.0859 123.711 53.7734C123.477 53.4349 122.93 53.2656 122.07 53.2656V52.2109C123.19 52.2891 124.31 52.3281 125.43 52.3281C126.576 52.3021 127.747 52.263 128.945 52.2109V53.2656C127.956 53.2656 127.122 53.4349 126.445 53.7734C125.768 54.112 125.117 54.6719 124.492 55.4531L119.766 61L125.234 67.875C125.755 68.5781 126.263 69.0599 126.758 69.3203C127.253 69.5807 127.982 69.7109 128.945 69.7109V70.6875C128.529 70.6875 128.138 70.6875 127.773 70.6875C127.435 70.6875 127.096 70.6745 126.758 70.6484C126.419 70.6484 126.081 70.6484 125.742 70.6484C125.404 70.6224 125.039 70.6094 124.648 70.6094C124.258 70.6094 123.906 70.6224 123.594 70.6484C123.281 70.6484 122.969 70.6484 122.656 70.6484C122.344 70.6484 122.018 70.6615 121.68 70.6875C121.367 70.6875 121.029 70.6875 120.664 70.6875V69.7109C121.732 69.7109 122.409 69.5807 122.695 69.3203C123.008 69.0599 122.93 68.6302 122.461 68.0312L118.32 62.7578L113.789 68.0703ZM147.109 67.0156C146.068 68.2656 144.87 69.3073 143.516 70.1406C142.188 70.9479 140.781 71.3516 139.297 71.3516C138.255 71.3516 137.253 71.1042 136.289 70.6094C135.352 70.1146 134.518 69.4505 133.789 68.6172C133.06 67.8099 132.474 66.8724 132.031 65.8047C131.615 64.737 131.406 63.6432 131.406 62.5234C131.406 61.013 131.654 59.5938 132.148 58.2656C132.643 56.9375 133.346 55.7786 134.258 54.7891C135.143 53.8255 136.185 53.0573 137.383 52.4844C138.607 51.9115 139.935 51.625 141.367 51.625C141.862 51.625 142.409 51.6771 143.008 51.7812C143.607 51.8854 144.167 52.0547 144.688 52.2891C145.208 52.4974 145.638 52.7839 145.977 53.1484C146.341 53.513 146.523 53.9557 146.523 54.4766C146.523 54.9453 146.419 55.3359 146.211 55.6484C146.029 55.9609 145.807 56.1172 145.547 56.1172C145.312 56.1172 145.052 56.026 144.766 55.8438C144.505 55.6354 144.193 55.2188 143.828 54.5938C143.568 54.125 143.125 53.7214 142.5 53.3828C141.875 53.0443 140.977 52.875 139.805 52.875C138.789 52.875 137.891 53.1354 137.109 53.6562C136.354 54.151 135.729 54.7891 135.234 55.5703C134.74 56.3255 134.362 57.1589 134.102 58.0703C133.867 58.9818 133.75 59.8281 133.75 60.6094C133.75 61.7031 133.88 62.7578 134.141 63.7734C134.427 64.7891 134.87 65.6745 135.469 66.4297C136.068 67.2109 136.823 67.8359 137.734 68.3047C138.646 68.7474 139.727 68.9688 140.977 68.9688C142.174 68.9688 143.255 68.7214 144.219 68.2266C145.182 67.7318 145.977 67.1849 146.602 66.5859L147.109 67.0156ZM152.305 59.125C152.227 59.5156 152.188 59.9323 152.188 60.375C152.188 60.8177 152.214 61.3906 152.266 62.0938C152.396 64.0729 153.008 65.7396 154.102 67.0938C155.195 68.4219 156.693 69.0859 158.594 69.0859C159.896 69.0859 161.016 68.8385 161.953 68.3438C162.917 67.8229 163.711 67.1849 164.336 66.4297L164.883 66.7812C164.154 68.0833 163.164 69.1771 161.914 70.0625C160.69 70.9219 159.31 71.3516 157.773 71.3516C156.654 71.3516 155.612 71.1172 154.648 70.6484C153.711 70.1797 152.891 69.5286 152.188 68.6953C151.484 67.862 150.924 66.8854 150.508 65.7656C150.117 64.6458 149.922 63.4219 149.922 62.0938C149.922 60.4531 150.13 58.9818 150.547 57.6797C150.964 56.3776 151.523 55.2839 152.227 54.3984C152.956 53.487 153.802 52.7969 154.766 52.3281C155.755 51.8594 156.81 51.625 157.93 51.625C158.711 51.625 159.492 51.7552 160.273 52.0156C161.055 52.276 161.758 52.6667 162.383 53.1875C163.008 53.7344 163.516 54.4245 163.906 55.2578C164.297 56.0651 164.505 57.0286 164.531 58.1484C164.531 58.4609 164.492 58.6953 164.414 58.8516C164.336 58.9818 164.141 59.0729 163.828 59.125H152.305ZM160.664 57.875C161.133 57.875 161.471 57.8099 161.68 57.6797C161.888 57.5234 161.992 57.25 161.992 56.8594C161.992 56.4427 161.888 56 161.68 55.5312C161.497 55.0625 161.237 54.6328 160.898 54.2422C160.534 53.8516 160.091 53.526 159.57 53.2656C159.049 53.0052 158.451 52.875 157.773 52.875C156.289 52.875 155.091 53.3438 154.18 54.2812C153.294 55.1927 152.708 56.3906 152.422 57.875H160.664ZM168.828 65.1016C168.906 65.6484 169.023 66.2214 169.18 66.8203C169.362 67.4193 169.622 67.9661 169.961 68.4609C170.299 68.9557 170.742 69.3594 171.289 69.6719C171.862 69.9844 172.591 70.1406 173.477 70.1406C174.961 70.1406 175.977 69.8281 176.523 69.2031C177.096 68.5521 177.383 67.8359 177.383 67.0547C177.383 66.4557 177.253 65.9479 176.992 65.5312C176.758 65.0885 176.445 64.6979 176.055 64.3594C175.664 64.0208 175.208 63.7214 174.688 63.4609C174.167 63.1745 173.633 62.888 173.086 62.6016C171.758 61.8984 170.612 61.1042 169.648 60.2188C168.685 59.3073 168.203 58.1875 168.203 56.8594C168.203 56.1823 168.346 55.5312 168.633 54.9062C168.919 54.2812 169.323 53.7214 169.844 53.2266C170.365 52.7578 170.99 52.3802 171.719 52.0938C172.474 51.7812 173.32 51.625 174.258 51.625C174.883 51.625 175.573 51.7161 176.328 51.8984C177.109 52.0547 177.852 52.3281 178.555 52.7188L178.867 57.0156H178.047C177.865 55.6875 177.448 54.6719 176.797 53.9688C176.146 53.2396 175.156 52.875 173.828 52.875C172.812 52.875 171.927 53.1354 171.172 53.6562C170.417 54.151 170.039 54.8281 170.039 55.6875C170.039 56.3125 170.182 56.8594 170.469 57.3281C170.755 57.7708 171.133 58.1745 171.602 58.5391C172.07 58.8776 172.604 59.1901 173.203 59.4766C173.802 59.763 174.414 60.0365 175.039 60.2969C175.638 60.5833 176.224 60.8828 176.797 61.1953C177.37 61.5078 177.878 61.8854 178.32 62.3281C178.737 62.7448 179.076 63.2396 179.336 63.8125C179.622 64.3594 179.766 64.9974 179.766 65.7266C179.766 66.4297 179.635 67.1198 179.375 67.7969C179.115 68.474 178.711 69.0729 178.164 69.5938C177.617 70.1406 176.927 70.5703 176.094 70.8828C175.26 71.1953 174.284 71.3516 173.164 71.3516C172.383 71.3516 171.549 71.2344 170.664 71C169.779 70.7656 169.023 70.4531 168.398 70.0625L167.93 65.1016H168.828ZM184.258 65.1016C184.336 65.6484 184.453 66.2214 184.609 66.8203C184.792 67.4193 185.052 67.9661 185.391 68.4609C185.729 68.9557 186.172 69.3594 186.719 69.6719C187.292 69.9844 188.021 70.1406 188.906 70.1406C190.391 70.1406 191.406 69.8281 191.953 69.2031C192.526 68.5521 192.812 67.8359 192.812 67.0547C192.812 66.4557 192.682 65.9479 192.422 65.5312C192.188 65.0885 191.875 64.6979 191.484 64.3594C191.094 64.0208 190.638 63.7214 190.117 63.4609C189.596 63.1745 189.062 62.888 188.516 62.6016C187.188 61.8984 186.042 61.1042 185.078 60.2188C184.115 59.3073 183.633 58.1875 183.633 56.8594C183.633 56.1823 183.776 55.5312 184.062 54.9062C184.349 54.2812 184.753 53.7214 185.273 53.2266C185.794 52.7578 186.419 52.3802 187.148 52.0938C187.904 51.7812 188.75 51.625 189.688 51.625C190.312 51.625 191.003 51.7161 191.758 51.8984C192.539 52.0547 193.281 52.3281 193.984 52.7188L194.297 57.0156H193.477C193.294 55.6875 192.878 54.6719 192.227 53.9688C191.576 53.2396 190.586 52.875 189.258 52.875C188.242 52.875 187.357 53.1354 186.602 53.6562C185.846 54.151 185.469 54.8281 185.469 55.6875C185.469 56.3125 185.612 56.8594 185.898 57.3281C186.185 57.7708 186.562 58.1745 187.031 58.5391C187.5 58.8776 188.034 59.1901 188.633 59.4766C189.232 59.763 189.844 60.0365 190.469 60.2969C191.068 60.5833 191.654 60.8828 192.227 61.1953C192.799 61.5078 193.307 61.8854 193.75 62.3281C194.167 62.7448 194.505 63.2396 194.766 63.8125C195.052 64.3594 195.195 64.9974 195.195 65.7266C195.195 66.4297 195.065 67.1198 194.805 67.7969C194.544 68.474 194.141 69.0729 193.594 69.5938C193.047 70.1406 192.357 70.5703 191.523 70.8828C190.69 71.1953 189.714 71.3516 188.594 71.3516C187.812 71.3516 186.979 71.2344 186.094 71C185.208 70.7656 184.453 70.4531 183.828 70.0625L183.359 65.1016H184.258ZM217.617 61.3906C217.617 62.7708 217.37 64.0729 216.875 65.2969C216.38 66.4948 215.716 67.5365 214.883 68.4219C214.049 69.3333 213.073 70.0495 211.953 70.5703C210.859 71.0911 209.688 71.3516 208.438 71.3516C207.135 71.3516 205.898 71.1302 204.727 70.6875C203.555 70.2448 202.526 69.5938 201.641 68.7344C200.755 67.901 200.052 66.8854 199.531 65.6875C199.01 64.4635 198.75 63.0964 198.75 61.5859C198.75 60.2318 198.971 58.9557 199.414 57.7578C199.883 56.5339 200.521 55.4661 201.328 54.5547C202.161 53.6693 203.138 52.9661 204.258 52.4453C205.378 51.8984 206.602 51.625 207.93 51.625C209.284 51.625 210.547 51.8594 211.719 52.3281C212.917 52.7708 213.945 53.4219 214.805 54.2812C215.664 55.1146 216.341 56.1432 216.836 57.3672C217.357 58.5651 217.617 59.9062 217.617 61.3906ZM214.727 61.8203C214.727 60.8568 214.609 59.8411 214.375 58.7734C214.141 57.6797 213.763 56.6901 213.242 55.8047C212.695 54.8932 211.992 54.151 211.133 53.5781C210.299 52.9792 209.271 52.6797 208.047 52.6797C206.875 52.6797 205.872 52.9401 205.039 53.4609C204.232 53.9818 203.581 54.6458 203.086 55.4531C202.591 56.2865 202.227 57.2109 201.992 58.2266C201.784 59.2161 201.68 60.1927 201.68 61.1562C201.68 62.0677 201.797 63.0573 202.031 64.125C202.266 65.1667 202.643 66.1432 203.164 67.0547C203.685 67.9661 204.362 68.7344 205.195 69.3594C206.055 69.9583 207.109 70.2578 208.359 70.2578C209.531 70.2578 210.521 69.9974 211.328 69.4766C212.135 68.9557 212.786 68.2786 213.281 67.4453C213.802 66.638 214.167 65.7396 214.375 64.75C214.609 63.7344 214.727 62.7578 214.727 61.8203Z" fill="url(#paint1_linear_50_53)"/>
<g style="mix-blend-mode:plus-lighter" opacity="0.25">
<g style="mix-blend-mode:plus-lighter" filter="url(#filter0_f_50_53)">
<path d="M16 47.9075L16.3059 56.2105L18.645 49.9128L16.8009 57.0497L20.2798 55.1628L16.99 58.4075L20.2798 61.6521L16.8009 59.7653L18.645 66.9021L16.3059 60.6044L16 68.9075L15.6941 60.6044L13.355 66.9021L15.1991 59.7653L11.7202 61.6521L15.01 58.4075L11.7202 55.1628L15.1991 57.0497L13.355 49.9128L15.6941 56.2105L16 47.9075Z" fill="#EFDC7B"/>
</g>
<g style="mix-blend-mode:plus-lighter" filter="url(#filter1_f_50_53)">
<path d="M44 48.9075L44.3059 57.2105L46.645 50.9128L44.8009 58.0497L48.2798 56.1628L44.99 59.4075L48.2798 62.6521L44.8009 60.7653L46.645 67.9021L44.3059 61.6044L44 69.9075L43.6941 61.6044L41.355 67.9021L43.1991 60.7653L39.7202 62.6521L43.01 59.4075L39.7202 56.1628L43.1991 58.0497L41.355 50.9128L43.6941 57.2105L44 48.9075Z" fill="#EFDC7B"/>
</g>
<g style="mix-blend-mode:plus-lighter" filter="url(#filter2_f_50_53)">
<path d="M90 49.9075L90.3059 58.2105L92.645 51.9128L90.8009 59.0497L94.2798 57.1628L90.99 60.4075L94.2798 63.6521L90.8009 61.7653L92.645 68.9021L90.3059 62.6044L90 70.9075L89.6941 62.6044L87.355 68.9021L89.1991 61.7653L85.7202 63.6521L89.01 60.4075L85.7202 57.1628L89.1991 59.0497L87.355 51.9128L89.6941 58.2105L90 49.9075Z" fill="#EFDC7B"/>
</g>
<g style="mix-blend-mode:plus-lighter" filter="url(#filter3_f_50_53)">
<path d="M118 49.9075L118.306 58.2105L120.645 51.9128L118.801 59.0497L122.28 57.1628L118.99 60.4075L122.28 63.6521L118.801 61.7653L120.645 68.9021L118.306 62.6044L118 70.9075L117.694 62.6044L115.355 68.9021L117.199 61.7653L113.72 63.6521L117.01 60.4075L113.72 57.1628L117.199 59.0497L115.355 51.9128L117.694 58.2105L118 49.9075Z" fill="#EFDC7B"/>
</g>
<g style="mix-blend-mode:plus-lighter" filter="url(#filter4_f_50_53)">
<path d="M133 49.9075L133.306 58.2105L135.645 51.9128L133.801 59.0497L137.28 57.1628L133.99 60.4075L137.28 63.6521L133.801 61.7653L135.645 68.9021L133.306 62.6044L133 70.9075L132.694 62.6044L130.355 68.9021L132.199 61.7653L128.72 63.6521L132.01 60.4075L128.72 57.1628L132.199 59.0497L130.355 51.9128L132.694 58.2105L133 49.9075Z" fill="#EFDC7B"/>
</g>
<g style="mix-blend-mode:plus-lighter" filter="url(#filter5_f_50_53)">
<path d="M151 49.9075L151.306 58.2105L153.645 51.9128L151.801 59.0497L155.28 57.1628L151.99 60.4075L155.28 63.6521L151.801 61.7653L153.645 68.9021L151.306 62.6044L151 70.9075L150.694 62.6044L148.355 68.9021L150.199 61.7653L146.72 63.6521L150.01 60.4075L146.72 57.1628L150.199 59.0497L148.355 51.9128L150.694 58.2105L151 49.9075Z" fill="#EFDC7B"/>
</g>
<g style="mix-blend-mode:plus-lighter" filter="url(#filter6_f_50_53)">
<path d="M174 49.9075L174.306 58.2105L176.645 51.9128L174.801 59.0497L178.28 57.1628L174.99 60.4075L178.28 63.6521L174.801 61.7653L176.645 68.9021L174.306 62.6044L174 70.9075L173.694 62.6044L171.355 68.9021L173.199 61.7653L169.72 63.6521L173.01 60.4075L169.72 57.1628L173.199 59.0497L171.355 51.9128L173.694 58.2105L174 49.9075Z" fill="#EFDC7B"/>
</g>
<g style="mix-blend-mode:plus-lighter" filter="url(#filter7_f_50_53)">
<path d="M190 49.9075L190.306 58.2105L192.645 51.9128L190.801 59.0497L194.28 57.1628L190.99 60.4075L194.28 63.6521L190.801 61.7653L192.645 68.9021L190.306 62.6044L190 70.9075L189.694 62.6044L187.355 68.9021L189.199 61.7653L185.72 63.6521L189.01 60.4075L185.72 57.1628L189.199 59.0497L187.355 51.9128L189.694 58.2105L190 49.9075Z" fill="#EFDC7B"/>
</g>
<g style="mix-blend-mode:plus-lighter" filter="url(#filter8_f_50_53)">
<path d="M200 49.9075L200.306 58.2105L202.645 51.9128L200.801 59.0497L204.28 57.1628L200.99 60.4075L204.28 63.6521L200.801 61.7653L202.645 68.9021L200.306 62.6044L200 70.9075L199.694 62.6044L197.355 68.9021L199.199 61.7653L195.72 63.6521L199.01 60.4075L195.72 57.1628L199.199 59.0497L197.355 51.9128L199.694 58.2105L200 49.9075Z" fill="#EFDC7B"/>
</g>
<g style="mix-blend-mode:plus-lighter" filter="url(#filter9_f_50_53)">
<path d="M214 8.90747L214.306 17.2105L216.645 10.9128L214.801 18.0497L218.28 16.1628L214.99 19.4075L218.28 22.6521L214.801 20.7653L216.645 27.9021L214.306 21.6044L214 29.9075L213.694 21.6044L211.355 27.9021L213.199 20.7653L209.72 22.6521L213.01 19.4075L209.72 16.1628L213.199 18.0497L211.355 10.9128L213.694 17.2105L214 8.90747Z" fill="#EFDC7B"/>
</g>
<g style="mix-blend-mode:plus-lighter" filter="url(#filter10_f_50_53)">
<path d="M198 8.90747L198.306 17.2105L200.645 10.9128L198.801 18.0497L202.28 16.1628L198.99 19.4075L202.28 22.6521L198.801 20.7653L200.645 27.9021L198.306 21.6044L198 29.9075L197.694 21.6044L195.355 27.9021L197.199 20.7653L193.72 22.6521L197.01 19.4075L193.72 16.1628L197.199 18.0497L195.355 10.9128L197.694 17.2105L198 8.90747Z" fill="#EFDC7B"/>
</g>
<g style="mix-blend-mode:plus-lighter" filter="url(#filter11_f_50_53)">
<path d="M169 8.90747L169.306 17.2105L171.645 10.9128L169.801 18.0497L173.28 16.1628L169.99 19.4075L173.28 22.6521L169.801 20.7653L171.645 27.9021L169.306 21.6044L169 29.9075L168.694 21.6044L166.355 27.9021L168.199 20.7653L164.72 22.6521L168.01 19.4075L164.72 16.1628L168.199 18.0497L166.355 10.9128L168.694 17.2105L169 8.90747Z" fill="#EFDC7B"/>
</g>
<g style="mix-blend-mode:plus-lighter" filter="url(#filter12_f_50_53)">
<path d="M152 8.90747L152.306 17.2105L154.645 10.9128L152.801 18.0497L156.28 16.1628L152.99 19.4075L156.28 22.6521L152.801 20.7653L154.645 27.9021L152.306 21.6044L152 29.9075L151.694 21.6044L149.355 27.9021L151.199 20.7653L147.72 22.6521L151.01 19.4075L147.72 16.1628L151.199 18.0497L149.355 10.9128L151.694 17.2105L152 8.90747Z" fill="#EFDC7B"/>
</g>
<g style="mix-blend-mode:plus-lighter" filter="url(#filter13_f_50_53)">
<path d="M136 8.90747L136.306 17.2105L138.645 10.9128L136.801 18.0497L140.28 16.1628L136.99 19.4075L140.28 22.6521L136.801 20.7653L138.645 27.9021L136.306 21.6044L136 29.9075L135.694 21.6044L133.355 27.9021L135.199 20.7653L131.72 22.6521L135.01 19.4075L131.72 16.1628L135.199 18.0497L133.355 10.9128L135.694 17.2105L136 8.90747Z" fill="#EFDC7B"/>
</g>
<g style="mix-blend-mode:plus-lighter" filter="url(#filter14_f_50_53)">
<path d="M94 8.90747L94.3059 17.2105L96.645 10.9128L94.8009 18.0497L98.2798 16.1628L94.99 19.4075L98.2798 22.6521L94.8009 20.7653L96.645 27.9021L94.3059 21.6044L94 29.9075L93.6941 21.6044L91.355 27.9021L93.1991 20.7653L89.7202 22.6521L93.01 19.4075L89.7202 16.1628L93.1991 18.0497L91.355 10.9128L93.6941 17.2105L94 8.90747Z" fill="#EFDC7B"/>
</g>
<g style="mix-blend-mode:plus-lighter" filter="url(#filter15_f_50_53)">
<path d="M68 8.90747L68.3059 17.2105L70.645 10.9128L68.8009 18.0497L72.2798 16.1628L68.99 19.4075L72.2798 22.6521L68.8009 20.7653L70.645 27.9021L68.3059 21.6044L68 29.9075L67.6941 21.6044L65.355 27.9021L67.1991 20.7653L63.7202 22.6521L67.01 19.4075L63.7202 16.1628L67.1991 18.0497L65.355 10.9128L67.6941 17.2105L68 8.90747Z" fill="#EFDC7B"/>
</g>
<g style="mix-blend-mode:plus-lighter" filter="url(#filter16_f_50_53)">
<path d="M48 8.90747L48.3059 17.2105L50.645 10.9128L48.8009 18.0497L52.2798 16.1628L48.99 19.4075L52.2798 22.6521L48.8009 20.7653L50.645 27.9021L48.3059 21.6044L48 29.9075L47.6941 21.6044L45.355 27.9021L47.1991 20.7653L43.7202 22.6521L47.01 19.4075L43.7202 16.1628L47.1991 18.0497L45.355 10.9128L47.6941 17.2105L48 8.90747Z" fill="#EFDC7B"/>
</g>
<g style="mix-blend-mode:plus-lighter" filter="url(#filter17_f_50_53)">
<path d="M39 8.90747L39.3059 17.2105L41.645 10.9128L39.8009 18.0497L43.2798 16.1628L39.99 19.4075L43.2798 22.6521L39.8009 20.7653L41.645 27.9021L39.3059 21.6044L39 29.9075L38.6941 21.6044L36.355 27.9021L38.1991 20.7653L34.7202 22.6521L38.01 19.4075L34.7202 16.1628L38.1991 18.0497L36.355 10.9128L38.6941 17.2105L39 8.90747Z" fill="#EFDC7B"/>
</g>
<g style="mix-blend-mode:plus-lighter" filter="url(#filter18_f_50_53)">
<path d="M9.62924 9.69618L13.2103 17.1935L12.8534 10.4849L13.9981 17.7668L16.4403 14.6526L14.7113 18.9375L19.0197 20.6073L15.0775 20.2586L19.6065 26.0745L14.9568 21.2254L17.9764 28.9659L14.3954 21.4686L14.7523 28.1772L13.6076 20.8953L11.1654 24.0095L12.8944 19.7246L8.58599 18.0549L12.5282 18.4035L7.99922 12.5876L12.6489 17.4367L9.62924 9.69618Z" fill="#EFDC7B"/>
</g>
<g style="mix-blend-mode:plus-lighter" filter="url(#filter19_f_50_53)">
<path d="M117.466 9.2921L115.534 17.3731L119.477 11.9332L115.786 18.3143L119.644 17.4293L115.604 19.673L117.904 23.681L115.058 20.9304L114.921 28.3004L114.356 21.6061L111.835 29.5231L113.767 21.442L109.825 26.8819L113.515 20.5009L109.657 21.3858L113.697 19.1421L111.398 15.1341L114.243 17.8848L114.38 10.5147L114.945 17.2091L117.466 9.2921Z" fill="#EFDC7B"/>
</g>
</g>
<defs>
<filter id="filter0_f_50_53" x="8.82021" y="45.0075" width="14.3596" height="26.8" filterUnits="userSpaceOnUse" color-interpolation-filters="sRGB">
<feFlood flood-opacity="0" result="BackgroundImageFix"/>
<feBlend mode="normal" in="SourceGraphic" in2="BackgroundImageFix" result="shape"/>
<feGaussianBlur stdDeviation="1.45" result="effect1_foregroundBlur_50_53"/>
</filter>
<filter id="filter1_f_50_53" x="36.8202" y="46.0075" width="14.3596" height="26.8" filterUnits="userSpaceOnUse" color-interpolation-filters="sRGB">
<feFlood flood-opacity="0" result="BackgroundImageFix"/>
<feBlend mode="normal" in="SourceGraphic" in2="BackgroundImageFix" result="shape"/>
<feGaussianBlur stdDeviation="1.45" result="effect1_foregroundBlur_50_53"/>
</filter>
<filter id="filter2_f_50_53" x="82.8202" y="47.0075" width="14.3596" height="26.8" filterUnits="userSpaceOnUse" color-interpolation-filters="sRGB">
<feFlood flood-opacity="0" result="BackgroundImageFix"/>
<feBlend mode="normal" in="SourceGraphic" in2="BackgroundImageFix" result="shape"/>
<feGaussianBlur stdDeviation="1.45" result="effect1_foregroundBlur_50_53"/>
</filter>
<filter id="filter3_f_50_53" x="110.82" y="47.0075" width="14.3596" height="26.8" filterUnits="userSpaceOnUse" color-interpolation-filters="sRGB">
<feFlood flood-opacity="0" result="BackgroundImageFix"/>
<feBlend mode="normal" in="SourceGraphic" in2="BackgroundImageFix" result="shape"/>
<feGaussianBlur stdDeviation="1.45" result="effect1_foregroundBlur_50_53"/>
</filter>
<filter id="filter4_f_50_53" x="125.82" y="47.0075" width="14.3596" height="26.8" filterUnits="userSpaceOnUse" color-interpolation-filters="sRGB">
<feFlood flood-opacity="0" result="BackgroundImageFix"/>
<feBlend mode="normal" in="SourceGraphic" in2="BackgroundImageFix" result="shape"/>
<feGaussianBlur stdDeviation="1.45" result="effect1_foregroundBlur_50_53"/>
</filter>
<filter id="filter5_f_50_53" x="143.82" y="47.0075" width="14.3596" height="26.8" filterUnits="userSpaceOnUse" color-interpolation-filters="sRGB">
<feFlood flood-opacity="0" result="BackgroundImageFix"/>
<feBlend mode="normal" in="SourceGraphic" in2="BackgroundImageFix" result="shape"/>
<feGaussianBlur stdDeviation="1.45" result="effect1_foregroundBlur_50_53"/>
</filter>
<filter id="filter6_f_50_53" x="166.82" y="47.0075" width="14.3596" height="26.8" filterUnits="userSpaceOnUse" color-interpolation-filters="sRGB">
<feFlood flood-opacity="0" result="BackgroundImageFix"/>
<feBlend mode="normal" in="SourceGraphic" in2="BackgroundImageFix" result="shape"/>
<feGaussianBlur stdDeviation="1.45" result="effect1_foregroundBlur_50_53"/>
</filter>
<filter id="filter7_f_50_53" x="182.82" y="47.0075" width="14.3596" height="26.8" filterUnits="userSpaceOnUse" color-interpolation-filters="sRGB">
<feFlood flood-opacity="0" result="BackgroundImageFix"/>
<feBlend mode="normal" in="SourceGraphic" in2="BackgroundImageFix" result="shape"/>
<feGaussianBlur stdDeviation="1.45" result="effect1_foregroundBlur_50_53"/>
</filter>
<filter id="filter8_f_50_53" x="192.82" y="47.0075" width="14.3596" height="26.8" filterUnits="userSpaceOnUse" color-interpolation-filters="sRGB">
<feFlood flood-opacity="0" result="BackgroundImageFix"/>
<feBlend mode="normal" in="SourceGraphic" in2="BackgroundImageFix" result="shape"/>
<feGaussianBlur stdDeviation="1.45" result="effect1_foregroundBlur_50_53"/>
</filter>
<filter id="filter9_f_50_53" x="206.82" y="6.00747" width="14.3596" height="26.8" filterUnits="userSpaceOnUse" color-interpolation-filters="sRGB">
<feFlood flood-opacity="0" result="BackgroundImageFix"/>
<feBlend mode="normal" in="SourceGraphic" in2="BackgroundImageFix" result="shape"/>
<feGaussianBlur stdDeviation="1.45" result="effect1_foregroundBlur_50_53"/>
</filter>
<filter id="filter10_f_50_53" x="190.82" y="6.00747" width="14.3596" height="26.8" filterUnits="userSpaceOnUse" color-interpolation-filters="sRGB">
<feFlood flood-opacity="0" result="BackgroundImageFix"/>
<feBlend mode="normal" in="SourceGraphic" in2="BackgroundImageFix" result="shape"/>
<feGaussianBlur stdDeviation="1.45" result="effect1_foregroundBlur_50_53"/>
</filter>
<filter id="filter11_f_50_53" x="161.82" y="6.00747" width="14.3596" height="26.8" filterUnits="userSpaceOnUse" color-interpolation-filters="sRGB">
<feFlood flood-opacity="0" result="BackgroundImageFix"/>
<feBlend mode="normal" in="SourceGraphic" in2="BackgroundImageFix" result="shape"/>
<feGaussianBlur stdDeviation="1.45" result="effect1_foregroundBlur_50_53"/>
</filter>
<filter id="filter12_f_50_53" x="144.82" y="6.00747" width="14.3596" height="26.8" filterUnits="userSpaceOnUse" color-interpolation-filters="sRGB">
<feFlood flood-opacity="0" result="BackgroundImageFix"/>
<feBlend mode="normal" in="SourceGraphic" in2="BackgroundImageFix" result="shape"/>
<feGaussianBlur stdDeviation="1.45" result="effect1_foregroundBlur_50_53"/>
</filter>
<filter id="filter13_f_50_53" x="128.82" y="6.00747" width="14.3596" height="26.8" filterUnits="userSpaceOnUse" color-interpolation-filters="sRGB">
<feFlood flood-opacity="0" result="BackgroundImageFix"/>
<feBlend mode="normal" in="SourceGraphic" in2="BackgroundImageFix" result="shape"/>
<feGaussianBlur stdDeviation="1.45" result="effect1_foregroundBlur_50_53"/>
</filter>
<filter id="filter14_f_50_53" x="86.8202" y="6.00747" width="14.3596" height="26.8" filterUnits="userSpaceOnUse" color-interpolation-filters="sRGB">
<feFlood flood-opacity="0" result="BackgroundImageFix"/>
<feBlend mode="normal" in="SourceGraphic" in2="BackgroundImageFix" result="shape"/>
<feGaussianBlur stdDeviation="1.45" result="effect1_foregroundBlur_50_53"/>
</filter>
<filter id="filter15_f_50_53" x="60.8202" y="6.00747" width="14.3596" height="26.8" filterUnits="userSpaceOnUse" color-interpolation-filters="sRGB">
<feFlood flood-opacity="0" result="BackgroundImageFix"/>
<feBlend mode="normal" in="SourceGraphic" in2="BackgroundImageFix" result="shape"/>
<feGaussianBlur stdDeviation="1.45" result="effect1_foregroundBlur_50_53"/>
</filter>
<filter id="filter16_f_50_53" x="40.8202" y="6.00747" width="14.3596" height="26.8" filterUnits="userSpaceOnUse" color-interpolation-filters="sRGB">
<feFlood flood-opacity="0" result="BackgroundImageFix"/>
<feBlend mode="normal" in="SourceGraphic" in2="BackgroundImageFix" result="shape"/>
<feGaussianBlur stdDeviation="1.45" result="effect1_foregroundBlur_50_53"/>
</filter>
<filter id="filter17_f_50_53" x="31.8202" y="6.00747" width="14.3596" height="26.8" filterUnits="userSpaceOnUse" color-interpolation-filters="sRGB">
<feFlood flood-opacity="0" result="BackgroundImageFix"/>
<feBlend mode="normal" in="SourceGraphic" in2="BackgroundImageFix" result="shape"/>
<feGaussianBlur stdDeviation="1.45" result="effect1_foregroundBlur_50_53"/>
</filter>
<filter id="filter18_f_50_53" x="5.09902" y="6.79617" width="17.4074" height="25.0698" filterUnits="userSpaceOnUse" color-interpolation-filters="sRGB">
<feFlood flood-opacity="0" result="BackgroundImageFix"/>
<feBlend mode="normal" in="SourceGraphic" in2="BackgroundImageFix" result="shape"/>
<feGaussianBlur stdDeviation="1.45" result="effect1_foregroundBlur_50_53"/>
</filter>
<filter id="filter19_f_50_53" x="106.758" y="6.39211" width="15.7858" height="26.031" filterUnits="userSpaceOnUse" color-interpolation-filters="sRGB">
<feFlood flood-opacity="0" result="BackgroundImageFix"/>
<feBlend mode="normal" in="SourceGraphic" in2="BackgroundImageFix" result="shape"/>
<feGaussianBlur stdDeviation="1.45" result="effect1_foregroundBlur_50_53"/>
</filter>
<linearGradient id="paint0_linear_50_53" x1="110" y1="1" x2="110" y2="35" gradientUnits="userSpaceOnUse">
<stop offset="0.2" stop-color="#B69616"/>
<stop offset="0.539213" stop-color="#EFDC7B"/>
<stop offset="0.8" stop-color="#B69616"/>
</linearGradient>
<linearGradient id="paint1_linear_50_53" x1="110" y1="39" x2="110" y2="79" gradientUnits="userSpaceOnUse">
<stop offset="0.2" stop-color="#B69616"/>
<stop offset="0.539213" stop-color="#EFDC7B"/>
<stop offset="0.8" stop-color="#B69616"/>
</linearGradient>
</defs>
</svg>
